<svg xmlns="http://www.w3.org/2000/svg"
     viewBox="0 0 64 64"
     width="64"
     height="64"
>
  <path
      d="m 10.01198,19.488008 q 0,-0.981333 0.306666,-1.655999 0.368,-0.736 0.92,-1.287999 0.613333,-0.552 1.349332,-1.042666 0.736,-0.490667 1.533333,-0.981333 1.655999,-1.042666 3.005332,-1.717333 1.410666,-0.674666 3.434664,-0.674666 1.288,0 2.269333,0.06133 0.981332,0 2.023999,0.797333 0.858666,0.674667 1.165332,1.471999 0.368,0.797333 0.368,1.962666 0,0.613333 -0.245333,1.287999 -0.184,0.674667 -0.613333,1.226666 -0.368,0.552 -0.981333,0.92 -0.552,0.306667 -1.226666,0.306667 -0.674666,0 -1.103999,-0.306667 -0.368,-0.368 -0.736,-0.736 -0.306666,-0.367999 -0.736,-0.674666 -0.367999,-0.368 -0.981332,-0.368 -0.797333,0 -1.656,0.184 -0.797332,0.122667 -1.471999,0.490667 -0.674666,0.367999 -1.103999,0.919999 -0.429333,0.552 -0.429333,1.349333 0,0.735999 0.490666,1.042666 0.490666,0.306666 1.165333,0.429333 0.735999,0.122667 1.533332,0.245333 0.797333,0.122667 1.472,0.490667 1.655999,0.858666 2.821331,1.533332 1.226666,0.674666 2.759999,1.717333 0.552,0.306666 0.981333,0.551999 0.429333,0.184 0.797333,0.368 0.429333,0.184 0.858666,0.429333 0.429333,0.245333 0.981333,0.674667 1.778666,1.410665 2.821332,2.882665 1.103999,1.410666 1.103999,3.741331 v 1.410666 q 0,0.736 0.245333,1.349333 0.245334,0.551999 0.245334,1.349332 0,1.288 -0.552,2.085333 -0.490667,0.797332 -0.981333,1.839999 -0.122667,0.490666 0,0.858666 0.122667,0.306666 -0.184,0.674666 -0.245333,0.797333 -0.797333,1.042666 -0.552,0.245333 -1.042666,0.858666 -0.552,0.490667 -1.042666,0.858667 -0.490667,0.368 -0.981333,0.735999 -0.490666,0.306667 -1.042666,0.613333 -0.490666,0.306667 -1.226666,0.674667 -1.165333,0.674666 -2.085332,0.919999 -0.92,0.306667 -2.146666,0.613333 -0.429333,0.122667 -0.736,0.368 -0.306666,0.306667 -0.797332,0.306667 -0.552,0 -0.858667,-0.122667 -0.306666,-0.06133 -0.674666,-0.06133 -0.919999,0 -1.471999,0.184 -0.490667,0.183999 -1.288,0.183999 -0.490666,0 -0.797332,-0.245333 -0.245334,-0.184 -0.736,-0.306666 -0.674666,-0.245333 -1.226666,-0.245333 -0.490667,0.06133 -1.165333,-0.06133 -0.674666,0 -1.103999,-0.429333 -0.429333,-0.368 -1.1039997,-0.797333 -0.6746663,-0.368 -1.2879993,-0.552 -0.613333,-0.122666 -1.2879994,-0.797332 -0.6746663,-0.368 -0.7359996,-0.92 Q 5.9639817,46.903994 5.5959819,46.229328 5.1053155,45.186662 4.7373157,44.634662 4.3693159,44.021329 4.3693159,42.794663 q 0,-1.778666 1.3493326,-3.066665 1.3493327,-1.349333 3.250665,-1.349333 1.1653325,0 2.2079985,0.552 1.042666,0.490666 1.042666,1.533332 0,0.368 -0.122666,0.552 -0.06133,0.184 -0.06133,0.429333 0,0.429333 0.183999,0.674666 0.184,0.245334 0.184,0.552 0,0.122667 -0.122666,0.368 -0.06133,0.184 -0.06133,0.306667 0,0.919999 0.490667,1.594665 0.490666,0.613333 1.226666,1.104 0.797333,0.429333 1.778666,0.674666 0.981332,0.184 1.962665,0.184 1.962666,0 3.557332,-0.92 1.655999,-0.919999 2.943998,-2.453332 0.736,-0.797333 1.226666,-1.655999 0.490667,-0.858666 0.490667,-2.146665 0,-0.736 -0.368,-1.349333 -0.368,-0.674666 -0.368,-1.349333 0,-0.306666 0.06133,-0.306666 0.122667,-0.06133 0.122667,-0.184 0,-0.981333 -0.552,-1.594666 -0.490666,-0.674666 -1.287999,-1.165333 -0.797333,-0.490666 -1.778666,-0.919999 -0.919999,-0.429333 -1.839999,-0.92 -0.245333,-0.122666 -0.429333,-0.429333 -0.122667,-0.306666 -0.429333,-0.429333 -0.613333,-0.306666 -1.226666,-0.306666 -0.613333,-0.06133 -1.165333,-0.552 -0.490666,-0.306667 -0.674666,-0.613333 -0.184,-0.368 -0.674666,-0.736 -0.674667,-0.306666 -1.226666,-0.306666 -0.490667,-0.06133 -1.165333,-0.552 -0.368,-0.429333 -0.674667,-0.735999 -0.245333,-0.306667 -0.490666,-0.797333 -0.490666,-0.613333 -1.226666,-0.981333 -0.6746663,-0.368 -0.6746663,-1.288 V 22.67734 q 0,-0.368 -0.061333,-0.736 -0.061333,-0.368 -0.061333,-0.797333 0,-0.245333 0.061333,-0.367999 0.061333,-0.184 0.061333,-0.429334 0,-0.306666 0.061333,-0.490666 0.1226673,-0.245333 0.1226673,-0.368 z m 36.309349,6.991997 q 0.245334,1.042666 0.490667,1.778665 0.306666,0.674667 0.490666,1.349333 0.245333,0.613333 0.368,1.349333 0.184,0.674666 0.184,1.655999 l 0.368,2.698665 q 0,0.92 0.06133,1.410666 0.122667,0.429333 0.245333,0.797333 0.122667,0.306666 0.245334,0.919999 0.183999,0.613333 0.429333,0.613333 0.306666,0 0.613333,-0.613333 0.306666,-0.613333 0.613333,-0.735999 0.367999,-0.368 1.042666,-0.858666 0.674666,-0.490667 0.674666,-1.165333 0,-0.797333 0.674666,-1.533333 0.674667,-0.797333 0.674667,-1.226666 0,-0.858666 -0.122667,-1.471999 -0.06133,-0.674666 -0.06133,-1.901332 0,-0.368 -0.306667,-0.858667 -0.245333,-0.490666 -0.613333,-0.919999 -0.368,-0.490666 -0.674666,-0.981333 -0.245333,-0.490666 -0.245333,-0.858666 0,-0.797333 0.122666,-1.104 0.184,-0.367999 0.429333,-0.551999 0.245334,-0.245333 0.552,-0.552 0.306667,-0.306666 0.552,-1.165333 0.306666,-1.287999 1.103999,-1.962665 0.797333,-0.736 1.962666,-1.656 0.92,0.429334 1.103999,0.858667 0.245334,0.368 0.613333,0.858666 0.92,1.165333 1.226666,1.962666 0.306667,0.797333 0.306667,1.962665 v 2.391999 q 0,0.306667 0.06133,0.490666 0.122667,0.184 0.122667,1.042667 0,1.165332 -0.306667,2.146665 -0.306666,0.981333 -1.042666,2.269332 0,0.368 -0.122666,0.490667 -0.06133,0.122666 -0.184,0.184 -0.06133,0.06133 -0.184,0.183999 -0.06133,0.122667 -0.06133,0.490667 -0.368,0.429333 -0.613333,0.797333 -0.245334,0.306666 -0.429334,0.674666 -0.122666,0.368 -0.122666,0.613333 0,0.184 -0.306667,0.490667 -0.245333,0.306666 -0.551999,0.735999 -0.306667,0.368 -0.613333,0.797333 -0.245334,0.429333 -0.245334,0.858666 -0.674666,0.858667 -1.226666,1.410666 -0.490666,0.552 -0.981332,1.104 -0.490667,0.490666 -1.042667,1.103999 -0.551999,0.552 -1.165332,1.349333 -0.858667,1.042666 -1.472,2.146665 -0.551999,1.042666 -1.165332,1.962666 -0.613333,0.858666 -1.410666,1.410666 -0.797333,0.613333 -2.085333,0.613333 -0.429333,0 -0.735999,-0.122667 -0.306667,-0.122666 -0.306667,-0.919999 l 0.490667,-2.882665 q -0.368,-0.797333 -0.429333,-1.288 -0.06133,-0.551999 -0.06133,-0.919999 0,-1.288 0.06133,-2.269332 0.122666,-0.981333 0.122666,-1.839999 0,-0.797333 -0.122666,-1.410666 -0.122667,-0.613333 -0.306667,-1.165333 -0.184,-0.552 -0.306666,-1.042666 -0.122667,-0.490667 -0.122667,-1.165333 0,-0.184 -0.306666,-1.103999 -0.306667,-0.981333 -0.674667,-2.085333 -0.306666,-1.165332 -0.613333,-2.146665 -0.306666,-1.042666 -0.306666,-1.288 0,-0.797332 -0.92,-1.226666 -0.919999,-0.490666 -1.778666,-0.490666 -0.490666,0 -0.735999,0.122667 -0.184,0.122666 -0.429333,0.306666 -0.184,0.184 -0.552,0.306667 -0.306667,0.122666 -1.042666,0.122666 -0.368,0 -0.674666,-0.306666 -0.184,-0.184 -0.306667,-0.368 0,-0.797333 0.552,-1.594666 0.613333,-0.797333 1.165332,-0.797333 0.858667,-0.797333 1.656,-1.533332 0.858666,-0.797333 1.901332,-1.226666 0.184,-0.245334 0.613333,-0.736 0.490666,-0.490666 1.042666,-0.92 0.613333,-0.490666 1.165333,-0.858666 0.613333,-0.368 1.103999,-0.368 0.797333,0 1.165333,0.552 0.368,0.552 0.429333,1.287999 0.122667,0.736 0.122667,1.472 0,0.735999 0.122666,1.103999 z"
      fill="#000" />
</svg>
