<svg
  version="1.1"
  viewBox="0 0 1024 1024"
  xmlns="http://www.w3.org/2000/svg"
  xmlns:svg="http://www.w3.org/2000/svg">
  <path
    style="fill:#000000"
    d="M 45,512 V 43 H 512 979 V 512 981 H 512 45 Z m 231.8,462.8 c 0.9044,-0.9044 1.2,-14.82222 1.2,-56.5 V 863 h -55 -55 v 56.5 56.5 h 53.8 c 40.51111,0 54.09641,-0.29641 55,-1.2 z M 393.78197,919.25 394.06394,863 H 339.03197 284 v 56.50854 56.50854 L 338.75,975.75854 393.5,975.5 Z m 115.85194,0 0.13392,-56.25 H 454.38391 399 v 55.83333 c 0,30.70834 0.30381,56.13714 0.67512,56.50846 0.37132,0.37132 25.23382,0.55882 55.25,0.41667 L 509.5,975.5 Z M 739.8,974.8 c 0.9044,-0.9044 1.2,-14.82222 1.2,-56.5 V 863 H 685.5 630 v 56.5 56.5 h 54.3 c 40.9,0 54.59613,-0.29613 55.5,-1.2 z M 856,919.5 V 863 H 801.5 747 v 55.83333 c 0,30.70834 0.3,56.13334 0.66667,56.5 C 748.03333,975.7 772.55833,976 802.16667,976 H 856 Z M 972.75833,919.25 973.01665,863 H 917.50833 862 v 56.50847 56.50846 L 917.25,975.75847 972.5,975.5 Z M 162,801.99153 V 745.98307 L 106.75,746.24153 51.499997,746.5 51.241601,802.25 50.983205,858 H 106.4916 162 Z m 116,0.008 v -56 h -55 -55 v 56 56 h 55 55 z m 115.98339,0 -0.0468,-56 H 338.9683 284 v 56 56 h 55.01508 55.01509 z m 231.01661,0 v -56 l -55.25,-1e-5 H 514.5 l 0.23728,55.75 c 0.1305,30.66251 0.243,55.86251 0.25,56.00001 0.007,0.1375 24.76272,0.25 55.01272,0.25 h 55 z m 116,0 v -56 h -54.88871 -54.88871 l -0.67717,3.60965 c -0.37245,1.98531 -0.58178,27.18531 -0.46519,56 l 0.21198,52.39035 H 685.6461 741 Z m 115,0 v -56 H 801.5 747 v 56 56 h 54.5 54.5 z m -694,-116 v -55 H 106.5 50.999997 v 55 55 H 106.5 162 Z m 116,0 v -55 h -55 -55 v 55 55 h 55 55 z m 231.66436,6.5e-4 -0.16436,-54.99934 -55.25,-6.6e-4 -55.25,-6.5e-4 v 55 55 h 55.41436 55.41437 z M 625,685.99953 v -55 h -55 c -35.99405,0 -55.00309,0.34556 -55.00893,1 -0.005,0.55 -0.009,25.075 -0.009,54.5 0,29.425 0.004,53.725 0.009,54 0.005,0.275 24.75893,0.5 55.00893,0.5 h 55 z m 116,0 v -55 H 685.5 630 v 51.875 c 0,28.53125 0.28125,53.28125 0.625,55 l 0.625,3.125 H 686.125 741 Z m 231.75854,-0.25 0.25854,-54.75 H 917.50854 862 v 55.00847 55.00846 l 55.25,-0.25846 55.25,-0.25847 z M 162,569.49153 V 513.98307 L 106.75,514.24153 51.499997,514.5 51.24153,569.75 50.983063,625 H 106.49153 162 Z m 232,0.008 V 514 h -55 -55 v 55.5 55.5 h 55 55 z m 115.55994,3e-5 -0.0599,-55.49998 -55.25,-2e-5 -55.25004,-3e-5 v 55.5 55.5 h 55.30994 55.30994 z M 625,569.49156 v -55.50849 l -55.02577,0.25846 -55.02578,0.25847 -0.22422,55.25001 -0.22423,55.25 h 55.25 L 625,625 Z m 231,0.008 V 514 H 801.5 747 v 55.5 55.5 h 54.5 54.5 z m 116.75847,0.25 -0.25847,-55.25 -55.25,-0.25847 L 862,513.98263 V 569.49153 625 h 55.50847 55.50846 z M 278,453.5 V 398 h -55 -55 v 55.5 55.5 h 55 55 z m 116,0 V 398 h -55 -55 v 55.5 55.5 h 55 55 z m 115.73858,0 0.0336,-55.5 H 454.38611 399 v 55.5 55.5 h 55.35247 55.35246 z M 741,453.5 V 398 H 685.5 630 v 55.5 55.5 h 55.5 55.5 z m 115,0 V 398 H 801.5 747 V 453.5 509 H 801.5 856 Z M 162,337 V 281 H 106.5 50.999997 v 56 56 H 106.5 162 Z M 277.7584,336.75 278.01679,281 H 223.0084 168 v 56.00854 56.00854 L 222.75,392.75854 277.5,392.5 Z m 116,0 0.25839,-55.75 H 339.0084 284 v 56.00854 56.00854 L 338.75,392.75854 393.5,392.5 Z M 625,337 v -56 h -55.25 l -55.25,-10e-6 0.24152,55.75001 c 0.13283,30.6625 0.24533,55.8625 0.25,56 C 514.99652,392.8875 539.75,393 570,393 h 55 z m 116,0 V 281 H 685.5 630 v 55.33333 c 0,30.43334 0.3,55.63334 0.66667,56 C 631.03333,392.7 656.00833,393 686.16667,393 H 741 Z M 855.7584,336.75 856.01679,281 H 801.5084 747 v 56.00861 56.00861 L 801.25,392.75861 855.5,392.5 Z m 117,0 0.25839,-55.75 H 917.5084 862 v 56.00847 56.00846 L 917.25,392.75847 972.5,392.5 Z M 162,221.01905 V 166.0381 l -2.25,-0.56158 c -1.2375,-0.30888 -26.1,-0.42995 -55.25,-0.26906 L 51.499997,165.5 51.24153,220.75 50.983063,276 H 106.49153 162 Z m 116,-0.002 v -54.98328 l -55.0002,-0.26672 -55.0002,-0.26672 2e-4,55.25 L 168,276 h 55 55 z m 231.5,0.0454 v -54.93796 l -7,-0.62227 c -3.85,-0.34224 -28.6,-0.48268 -55,-0.31207 l -48,0.31019 -0.25847,55.25 -0.25846,55.25 55.25846,3e-5 55.25847,3e-5 z M 624.75847,220.75 624.5,165.5 l -46,-0.31809 c -25.3,-0.17495 -50.08463,-0.0263 -55.07696,0.33035 -8.55098,0.61087 -9.06285,0.77417 -8.83333,2.81809 0.13399,1.19331 0.28112,25.90715 0.32696,54.91965 l 0.0833,52.75 h 55.00847 55.00846 z M 856,221.01686 V 166.03372 L 801.4998,165.76686 746.99959,165.5 746.9998,220.75 747,276 h 54.5 54.5 z m 116.75845,-0.73412 0.25845,-55.21725 -53.88643,-0.0482 c -29.63754,-0.0265 -54.61634,0.23191 -55.50845,0.57425 C 862.15325,166.15517 862,171.40103 862,221.11546 v 54.90147 L 917.25,275.75847 972.5,275.5 Z M 162,104.5 V 49 H 106.5 50.999997 V 104.5 160 H 106.5 162 Z m 231.08124,2.75 c 0.0447,-29.0125 0.17204,-53.9875 0.28302,-55.5 L 393.56604,49 H 338.78302 284 V 104.5 160 H 338.5 393 Z M 509.5,104.25048 V 49.00096 L 454.25,49.00048 399,49 v 55.50847 55.50846 L 454.25,159.75847 509.5,159.5 Z M 625,104.5 V 49 l -55.25,-1.9e-4 -55.25,-2e-4 0.26658,55.50019 L 515.03316,160 H 570.01658 625 Z m 116,0 V 49 h -55.51743 -55.51744 l 0.24094,46.75 c 0.13251,25.7125 0.39842,50.6875 0.5909,55.5 l 0.34998,8.75 H 686.07347 741 Z m 232,0 V 49 H 917.5 862 v 55.5 55.5 h 55.5 55.5 z"
  />
</svg>
