<svg viewBox="0 0 1204.2874 1365.3334" xmlns="http://www.w3.org/2000/svg"><path d="m571.93096 1361.6666c1.4093-6.5891 4.13956-44.7164 4.08173-57-.0708-15.0477-4.06084-30.0099-11.23917-42.1461-6.46779-10.935-9.91331-13.2399-21.86357-14.6258-13.78506-1.5986-21.56844-4.3395-34.20156-12.0437-26.1961-15.9755-33.07167-19.7968-41.91745-23.2968-5.13334-2.0311-10.83333-4.6091-12.66667-5.7289-7.02772-4.2925-29.08179-22.3022-38.19601-31.1916-15.11783-14.7448-15.65337-11.575-4.3419 25.6996 4.69305 15.4649 9.60042 27.9604 16.52046 42.0656 12.3576 25.1886 13.8402 30.5225 10.74025 38.6396-2.51633 6.5889-6.4399 8.6124-12.53996 6.4671-4.09069-1.4386-4.96085-3.5197-16.25228-38.8698l-8.20822-25.6975-16.74358-24.3025c-19.77271-28.6992-27.56567-38.3025-31.08185-38.3025-3.60162 0-3.38854 7.2827.79975 27.3333 1.83819 8.8 2.98932 17.6338 2.55806 19.6306-1.13934 5.2756-7.78725 10.3694-13.53297 10.3694-12.28835 0-23.15358-13.5061-37.92022-47.1369-6.885-15.6805-10.71092-28.3471-15.88749-52.5992-4.39838-20.6063-6.39291-26.0616-10.04028-27.4612-1.26829-.4867-5.73234.8218-10.38265 3.0432-8.3254 3.9771-20.23178 7.2773-32.15776 8.9136-9.56704 1.3126-11.33333 2.5481-11.33333 7.9271 0 6.1575 3.407 14.5489 9.19484 22.6467 16.91598 23.6674 30.68181 28.8543 29.38354 11.0717-1.23107-16.862-.62175-30.4781 1.42161-31.7682 5.3472-3.3758 8.54673 1.4531 10.7844 16.2764.80979 5.3644 2.31458 13.4768 3.34397 18.0275 3.07499 13.5938 2.57591 18.2296-2.41457 22.4289-4.01348 3.3771-4.9255 3.5682-14.33334 3.0034-11.21604-.6732-20.79566-4.6782-26.90597-11.2487-6.00582-6.458-19.47186-28.0718-22.45179-36.0364-1.55953-4.1682-3.18511-11.5182-3.6124-16.3332-.98144-11.0596-1.87453-12.7175-9.43281-17.5109-10.15325-6.439-11.88146-5.6797-22.17463 9.7416-7.61628 11.4108-16.19952 15.6903-26.11465 13.0204-2.87623-.7745-6.49659-3.0322-8.07864-5.0379-2.80182-3.5523-2.85005-4.352-2.12931-35.3116.62985-27.0558 1.10328-32.5021 3.24524-37.3333 1.37929-3.111 3.50531-6.4798 4.72449-7.4863 1.21918-1.0064 2.21669-2.6416 2.21669-3.6336 0-1.4219-.7762-1.5042-3.66667-.3886-2.01667.7784-6.97973 1.4235-11.02903 1.4337-18.01896.045-26.53069-6.0176-33.7415-24.0337-5.807475-14.50986-9.137245-30.08326-8.080535-37.79276.62233-4.5404.007-7.6655-2.84426-14.4414-2.96605-7.049-3.83413-11.7271-4.69729-25.3137-.58235-9.1666-1.71401-23.5666-2.51479-32-1.33199-14.0275-.99289-54.7979.47553-57.1738.34147-.5526 1.23681-5.9169 1.98963-11.9207 2.25465-17.9812 8.9862-44.4172 19.653775-77.1838l10.07453-30.9451-3.62714-10.3883c-2.38672-6.8356-3.85336-14.2641-4.28862-21.72158-.7873-13.48918 1.3167-39.97806 4.13326-52.03665 1.10865-4.74651 3.04753-13.13001 4.30863-18.63001 3.48683-15.20711 23.57336-75.26869 29.20708-87.33333 2.7395-5.86667 7.24765-16.36667 10.01809-23.33333 2.77045-6.96667 7.81515-19.26667 11.21046-27.33333 10.75359-25.54874 26.08551-65.14894 26.08551-67.37524 0-2.0687 6.25271-20.20033 10.33107-29.95809 3.7413-8.95131 13.59445-47.28571 13.63971-53.06621.0384-4.9003-2.71095-9.9676-8.19035-15.0959-6.13881-5.7454-24.29908-17.8971-35.70033-23.8883-5.21685-2.7413-11.97282-7.1919-15.01327-9.89-5.11799-4.5418-5.57119-5.5015-6.10892-12.9356-.41304-5.7102.0387-9.2278 1.56397-12.1773 3.959-7.6559 2.95309-10.5996-6.64929-19.4586-9.95001-9.1797-12.53925-13.3171-12.53925-20.0366 0-6.9102 3.43687-9.1732 20.3308-13.387 8.25139-2.0581 16.5895-4.5474 18.52914-5.5317 1.93964-.9844 5.83964-2.3422 8.66667-3.0174 22.16142-5.2931 25.00789-6.8392 26.41669-14.3488 1.16381-6.2036 9.05958-14.7639 15.18797-16.4661 2.6778-.7437 9.66872-1.3627 15.53539-1.3755 5.86666-.013 13.96666-.9091 18-1.9917 4.03333-1.0825 11.1026-1.9754 15.70949-1.9841 4.85978-.01 10.45721-.9396 13.33333-2.2162 2.898-1.2864 9.38804-2.3565 15.62384-2.5763 21.25716-.7491 62.73925-3.2296 65.75322-3.9318 2.26851-.5285 2.97527-1.5018 2.66667-3.672-.38387-2.6996-1.04895-2.9174-7.75323-2.5389-18.22983 1.0293-27.17686.3924-30.62175-2.1795-7.65072-5.7121-1.42084-11.4263 14.75824-13.5365 5.42493-.7076 13.00627-2.4989 16.84742-3.9807 3.84114-1.4818 12.84114-3.3874 19.99999-4.2346l13.0161-1.5403 10.66667-11.4596c16.44943-17.672097 29.51657-29.651997 38.48771-35.285297 4.49842-2.8247 9.37895-6.21 10.84562-7.5227 1.46666-1.3128 4.76666-2.8008 7.33333-3.3067 2.56667-.506 8.86667-2.3228 14-4.0374 17.11665-5.7174 43.89565-4.5577 80.41189 3.4823 3.15988.6957 9.7034 1.5668 14.54117 1.9357 5.64294.4303 12.04736 2.0977 17.86647 4.6518 4.98879 2.1895 11.94527 4.5474 15.45883 5.2397 3.51357.6922 9.54473 2.4814 13.4026 3.9759 5.1684 2.0022 10.12437 2.7173 18.83236 2.7173 7.09668 0 14.08271.799 17.48667 2 3.52148 1.2424 10.52919 2.004 18.50097 2.0107 7.0578.01 19.43236.8312 27.49903 1.8339 8.06666 1.0027 28.45266 1.9001 45.30222 1.9943 24.56218.1374 31.74347.5945 36.22413 2.3056 6.51451 2.488 11.66206 1.3398 20.07472-4.4776 2.78607-1.9266 7.87938-5.0398 11.31846-6.9183 6.25525-3.4166 11.37055-6.6262 26.91966-16.8906 4.56185-3.0114 10.66424-6.2342 13.56087-7.1618s9.4098-3.837 14.47373-6.4654c7.7769-4.0365 9.98399-6.0075 14.20818-12.6883 2.75058-4.3502 7.00737-12.6218 9.45954-18.3814l4.45848-10.47180027 10.96699-.011 10.967-.011-1.30145 3.42309997c-1.98197 5.2129-4.04515 8.7887003-8.02609 13.9102003-4.55135 5.8554-5.76425 10.8187-3.42543 14.0172 1.71632 2.3472 2.03187 2.3062 7.63796-.9936 8.65074-5.0919 23.21774-19.7588 25.27514-25.4485003l1.7749-4.90839997h11.7322c11.4855 0 11.7321.067 11.7321 3.19069997 0 6.2614 10.4148 6.7882 16 .8093 3.7176-3.97969997 3.8115-3.99999997 18.53493-3.99999997 8.1392 0 14.7984.5265 14.7984 1.17009997 0 2.6777-3.956 4.2923-8.4508 3.4491-3.8943-.7306-4.902-.4074-6.1809 1.9822-.8404 1.5703-1.3421 4.7774003-1.1148 7.1269003.3205 3.3135 1.0258 4.2544 3.1444 4.1947 3.3823-.095 18.4803-9.3017003 23.3796-14.2563003l3.6258-3.66669997h69.465 69.4651v7.35349997c0 6.8164003-1.334 13.6215003-6.0075 30.6465003-3.4616 12.61-3.8114 16.564-1.5427 17.4346 2.3869.916 12.8589-6.6015 17.1876-12.3385 1.5615-2.0695 7.1228-8.2628 12.3583-13.7628 9.8979-10.3979 17.0598-20.0090003 19.2992-25.8991003 1.232-3.24019997 1.8348-3.43419997 10.6721-3.43419997 5.1514 0 9.3663.3239 9.3663.7198 0 1.77579997-5.7475 11.40350027-11.9079 19.94690027-3.7015 5.1333-9.4041 13.352-12.6726 18.2639-3.2684 4.9118-10.827 13.6118-16.7968 19.3333s-12.4496 12.2027-14.3995 14.4027c-7.1979 8.121-15.0597 15.0908-23.1998 20.5673-6.4934 4.3686-9.1743 5.4525-12.0234 4.8608-2.0167-.4187-5.3922-1.1185-7.5011-1.5551-2.8624-.5925-6.1241.4214-12.8676 3.999997-4.9682 2.6365-9.7618 4.7937-10.6524 4.7937s-3.2002 1.2436-5.1324 2.7635c-3.0598 2.4067-3.5132 3.7423-3.5132 10.3483 0 8.9917 5.7287 37.7432 9.3517 46.9348 5.9557 15.1095 9.8382 61.6906 6.7695 81.2176-.8584 5.462-3.9985 15.962-6.978 23.3333-6.5827 16.2858-8.0538 29.1828-4.636 40.6445 2.7235 9.1334 2.8098 27.7011.1757 37.8139-1.091 4.1888-4.7422 12.3637-8.1138 18.1663-5.6732 9.7639-6.8917 10.99135-16.3496 16.47017-5.6207 3.256-13.0619 7.17015-16.5361 8.69812-16.4839 7.24977-25.447 16.5636-31.0608 32.27617-7.5874 21.23665-10.7723 67.82035-6.7458 98.66667 4.5732 35.03419 17.9578 84.37074 34.1827 125.99999 6.3456 16.28138 12.8625 37.94339 15.4209 51.25881 1.1806 6.1441 3.3951 12.2443 5.813 16.0122 8.3231 12.9705 13.4017 30.234 15.3157 52.0623 1.0665 12.1636-1.9429 25.4257-7.9554 35.0583-19.4259 31.1221-21.7843 34.1626-31.1595 40.1719-9.2882 5.9536-12.1608 10.1203-12.1608 17.6388 0 2.0794-2.9208 6.0729-8.6594 11.8398-4.7626 4.7862-9.8015 10.9347-11.1975 13.6633-2.8324 5.5364-22.6339 32.7045-29.85463 40.9612-2.5653 2.9334-6.8594 8.9334-9.5425 13.3334-2.6832 4.4-6.3264 10.0056-8.0961 12.457-1.7696 2.4514-4.4813 7.8514-6.0259 12-1.5445 4.1486-4.5259 10.243-6.6252 13.543-7.0883 11.1421-26.2126 48.9595-27.4817 54.3435-.474 2.0111-2.8419 7.5565-5.2619 12.3232-5.6868 11.2012-15.25523 32.7613-15.25523 34.374 0 .6877-2.04229 5.6849-4.53842 11.1049-2.49614 5.4199-5.24019 12.5544-6.09791 15.8544-.85771 3.3-3.26885 9.9-5.35809 14.6667-2.08924 4.7666-5.38601 12.2666-7.32614 16.6666-4.59931 10.4307-8.63369 32.8569-8.65919 48.1344-.0299 17.9302-2.60844 23.199-11.35358 23.199-10.77987 0-14.86309-11.0232-11.39231-30.7552 4.26924-24.2713 4.57449-60.5388.54346-64.5699-2.73612-2.7361-8.87758-.1612-13.77875 5.777-11.26639 13.6502-21.5453 25.3279-29.11701 33.0795-4.6262 4.7362-9.49845 11.1291-10.82721 14.2065-1.32877 3.0775-3.55983 6.6173-4.95793 7.8662-2.74079 2.4484-6.25833 9.567-23.62329 47.8079-14.58771 32.1249-18.38569 43.8893-19.18912 59.4391-.79229 15.3341.73189 20.0828 9.08497 28.3052 10.72486 10.557 48.66395 25.9382 71.2572 28.8889 3.66666.4789 11.16666 1.9833 16.66666 3.3432 24.93816 6.1661 44.89027 8.4235 71.76499 8.1197 21.2194-.2398 26.8649-.7181 32-2.7109 3.7243-1.4454 11.6535-2.7365 19.6914-3.2066 15.6575-.9155 33.06233-3.0082 47.21033-5.6765 12.7159-2.3981 43.6254-4.2588 66-3.9729 16.5003.2108 17.9576.4587 30.3239 5.1584 7.1449 2.7153 18.8449 6.3609 26 8.1014 17.1107 4.162 41.8348 12.4694 44.2951 14.8834 1.6974 1.6654-24.3868 1.9156-199.71113 1.9156h-201.66348l-14.28888-9.5524c-7.85889-5.2538-17.15149-12.1068-20.65022-15.2289-4.61958-4.1222-8.26553-6.0848-13.31598-7.168-11.73294-2.5162-25.07669-13.2418-31.52445-25.3391-3.56816-6.6945-5.43058-8.5831-11.84924-12.016-9.43354-5.0452-23.52116-20.59-27.2141-30.029-4.67272-11.9433-8.13971-13.6927-16.24085-8.1951-2.54341 1.726-7.47147 3.5284-10.95126 4.0054-3.47978.4769-8.88229 2.3647-12.00559 4.1951-3.49371 2.0475-7.73108 3.328-11.01271 3.328-5.98109 0-9.54921 2.6713-9.47719 7.0952.026 1.5976.91775 8.3048 1.98165 14.9048 1.06391 6.6 2.33637 25.95 2.82771 43l.89334 31h-8.8018-8.8018l.73983-18.3334c1.0588-26.2378-1.21687-54.3549-5.49545-67.899-4.05411-12.8336-10.74297-23.581-15.05744-24.1937-3.89864-.5537-3.84828 1.4448.31515 12.506 7.18209 19.0811 9.22159 50.0896 5.34087 81.2027-1.09414 8.7721-1.98935 16.1221-1.98935 16.3333s-3.96995.3841-8.8221.3841h-8.8221zm167.94973-68.5217c1.3965-2.2139.0486-14.4783-1.59118-14.4783-1.36513 0-5.49859 8.8543-5.49859 11.7786 0 2.7459 2.65889 5.7795 4.52141 5.1587.70844-.2361 1.86421-1.3427 2.56836-2.459zm-23.62019-23.4783c6.73444-11.9072 10.53451-16.9215 18.98539-25.0519 4.65024-4.4738 10.05024-10.8772 12-14.2298 1.94977-3.3526 7.00682-11.2999 11.23789-17.6607 4.23107-6.3607 9.48696-15.5218 11.67976-20.3579 2.19279-4.8362 6.88312-13.647 10.42294-19.5797 11.26679-18.8829 14.62778-30.12 9.00887-30.12-1.07026 0-7.91279 5.3512-15.20564 11.8916-7.29284 6.5404-16.37904 13.4723-20.19155 15.4043-3.81251 1.9319-9.7388 5.4795-13.16954 7.8834-3.43073 2.404-9.2377 5.4522-12.90436 6.7739-11.52436 4.154-14.24355 7.0508-18.33072 19.528-2.62084 8.0008-5.5715 13.6377-10.36356 19.7983-3.68474 4.7371-7.38118 10.8881-8.21431 13.6688-2.01445 6.7237.32069 17.1952 5.77153 25.8813 9.25775 14.7526 13.62806 16.1518 19.2733 6.1704zm-74.51959-25.8645c12.12144-4.4995 23.17654-16.969 17.10856-19.2975-2.72351-1.0451-18.41065 2.7249-28.72521 6.9035-14.00841 5.6749-16.84676 9.8601-9 13.2707 6.12477 2.662 11.72506 2.4239 20.61665-.8767zm-28.28331-28.3874c4.4-1.1868 12.8104-5.0791 18.68979-8.6495s14.56971-8.0682 19.31183-9.9951c15.67045-6.3675 25.99986-13.3942 30.54253-20.777 2.26738-3.6849 4.12284-7.1409 4.12326-7.6799.00041-.5389 2.4006-4.8799 5.33376-9.6466 6.3488-10.3174 9.29594-18.8271 14.54584-42 2.1598-9.5333 6.05184-22.8865 8.64899-29.6737 4.21602-11.0179 9.08732-27.952 13.18324-45.8289 1.71147-7.4699-.46555-14.0893-5.22943-15.9005-3.03434-1.1537-16.04482 1.5354-47.14982 9.7452-9.83229 2.5951-14.07052 2.9417-32 2.6169-19.07925-.3457-21.28114-.6482-28.66666-3.9386-7.07707-3.1529-9.84586-3.5921-24-3.8067-18.6905-.2833-28.66305-2.4006-49.35028-10.4777-23.66336-9.2391-34.63237-14.9739-42.64157-22.29386-9.36612-8.5601-13.05576-15.5207-13.05576-24.6301 0-9.8883 5.88518-18.298 19.04762-27.2182 9.18546-6.225 9.82928-9.4164 4.66666-23.1322-4.18051-11.1066-4.18806-16.0517-.0348-22.795 1.80669-2.9333 3.30362-6.3498 3.3265-7.5923.0937-5.0837 5.79294-9.1205 16.70828-11.8343 11.82031-2.9389 17.46926-6.671 24.26542-16.0317 9.33986-12.8643 10.13862-13.5355 16.01066-13.4545 6.11972.085 12.7519 3.2457 29.72392 14.1676 18.21246 11.7203 16.29593 11.1186 33.08374 10.3867 18.32838-.799 19.24163-1.5842 19.43465-16.7095.11787-9.2365-.21749-10.2992-8.89031-28.172-12.63555-26.039-15.67321-39.6484-10.90693-48.8653 1.12997-2.1851 1.67481-4.5873 1.21075-5.3382-.46406-.7508-4.21819-2.8575-8.34251-4.6815-4.12432-1.8239-8.66096-4.342-10.08142-5.5956-6.88174-6.0735-44.76277-69.4863-49.45062-82.78032-2.99998-8.50743-2.67436-10.9862 4.05017-30.83236 11.10099-32.76242 14.56814-46.66666 11.63673-46.66666-.69807 0-4.03183.94131-7.40836 2.09181-3.37652 1.1505-8.13341 1.9005-10.57085 1.66667-6.13611-.58866-6.37561-4.43021-.89745-14.39499 4.5453-8.26788 4.40525-9.61001-1.17873-11.29644-7.72905-2.33426-13.93155 14.78825-8.57908 23.6833 2.71783 4.51666 2.52111 6.73874-.95043 10.736-4.01733 4.62569-8.27985 5.28672-32.15935 4.98727-21.52331-.2699-24.2642-.58786-35.33333-4.09885-18.3878-5.83239-20.6304-6.04585-27.25287-2.59402-5.69262 2.96716-5.76405 2.97036-10.41144.46758-5.2163-2.80916-23.45933-29.14589-26.7166-38.56969-2.72886-7.89501-1.02815-19.87849 5.67854-40.01197 8.49017-25.48748 9.92853-28.10258 22.58317-41.05892 6.29889-6.44907 11.45253-12.5256 11.45253-13.5034 0-2.32644-2.46914-4.197-6.95301-5.26744-3.69382-.88183-24.15379 3.08039-31.19069 6.0403-2.12096.89213-9.91612 1.9649-17.32257 2.38393-12.64194.71524-13.90918 1.05595-20.70145 5.56577-7.35532 4.88365-8.14201 5.22166-18.20848 7.82334-7.18486 1.85692-17.22666 10.7485-42.95712 38.03665-10.63333 11.27706-22.88841 23.23601-27.2335 26.57544-7.46109 5.73423-8.06985 5.96051-10.95309 4.07134-6.02856-3.95006-6.04939-3.91145-10.37349 19.23035-2.31871 12.40931-3.18607 22.09859-3.33602 37.26671l-.20263 20.49741 5.04937 7.34082 5.04936 7.34082-.35225 14.16177c-.3727 14.98418.97002 20.87668 5.05236 22.17238 4.93168 1.5653 9.83168 6.7907 22.9227 24.445 14.48815 19.5385 19.67701 29.0128 19.6975 35.9654.0135 4.5841-1.97688 9.5272-4.51992 11.2252-4.44334 2.9669-16.53322-.9501-30.47062-9.8722-3.4853-2.2311-7.2353-3.7118-8.33333-3.2905-3.05524 1.1724-2.51509 11.1124 1.9161 35.2604 4.92517 26.8399 5.59236 29.4551 12.45439 48.8173 6.39456 18.0431 6.13558 17.7189 29.63307 37.0983 8.8 7.2577 26.5 23.5698 39.33333 36.249 18.14578 17.928 25.03516 23.8559 30.98806 26.6635 14.48618 6.8323 68.13132 63.85126 78.23587 83.15626 2.63831 5.0405 1.31602 11.329-2.79432 13.289-6.75727 3.2223-13.6042-.5387-26.42961-14.5177-6.23334-6.794-18.57616-19.9269-27.42849-29.18416-8.85233-9.2573-21.83888-24.0055-28.85899-32.7737-20.37451-25.448-29.10726-32.0737-31.21335-23.6824-1.23108 4.905.47967 34.1023 2.76526 47.1945 1.72705 9.8928 2.36951 11.3 7.19136 15.7515 2.91219 2.68846 6.76421 8.18216 8.56005 12.20806 1.79584 4.026 10.48148 22.0199 19.30142 39.9866s18.20074 37.3664 20.84621 43.1104c8.71264 18.9176 22.5581 38.4586 35.44563 50.0267 17.15331 15.3972 25.53465 20.5887 70.0613 43.3971 5.86873 3.0062 15.16395 8.4658 20.65606 12.1325 5.4921 3.6666 15.69042 9.5659 22.66292 13.1094l12.67727 6.4428 12.66667-.6565c6.96667-.361 16.26667-1.6275 20.66667-2.8143zm-276.66665-31.6256c0-5.758-5.11031-35.4287-8.67524-50.3688-3.04473-12.7601-14.52291-26.7537-21.94452-26.7537-2.17281 0-2.71336.8636-2.71248 4.3333.002 8.8181 4.30083 24.8427 11.53479 43 8.5863 21.5518 10.25868 25.0811 14.68937 31 4.58025 6.1187 7.10808 5.6881 7.10808-1.2108zm111.99999-7.2692c0-5.863-17.56835-32.1806-25.53792-38.2562-4.50696-3.4359-20.98755-10.3177-25.66047-10.7151-4.29648-.3654-3.91898 2.9453.85156 7.468 2.50424 2.3742 13.60176 13.1667 24.66115 23.9833 19.33833 18.9139 25.68568 23.2434 25.68568 17.52zm-67.99995-31.623c-2.30135-8.9266-4.89283-17.6953-5.75883-19.4858s-5.02141-5.6905-9.23425-8.6667c-4.64759-3.2832-11.79842-10.6543-18.18436-18.7445-12.16695-15.4138-16.71895-19.9668-18.7239-18.7276-.82616.5106-1.43204 5.3691-1.43204 11.4837v10.5986l8.63513 9.656c4.74932 5.3108 16.46018 19.9823 26.02414 32.6033 9.56396 12.6209 18.42815 23.5342 19.69821 24.2517 3.89914 2.2028 3.57165-5.1422-1.0241-22.9687zm359.69519 5.2816c2.73427-1.7351 10.02612-6.0825 16.2041-9.6608 9.43499-5.4649 12.38341-8.0622 18.42278-16.2286 3.95455-5.3474 10.03966-11.95 13.52246-14.6725 5.82133-4.5505 15.30581-17.1082 22.87227-30.2833 1.6846-2.9334 5.13036-7.9172 7.65724-11.0752 5.58479-6.9797 11.26244-18.4702 16.59818-33.5915 4.9113-13.9184 9.31656-22.8709 20.99512-42.66666 4.97526-8.4333 11.77904-19.9946 15.11951-25.6917 6.7111-11.4457 11.57974-23.3425 11.57974-28.2957 0-3.1872-.0796-3.1677-7.66667 1.8812-4.21666 2.806-9.61992 7.8305-12.00723 11.1654-2.38731 3.335-10.05421 10.6591-17.03755 16.2758-13.45983 10.8258-21.95015 20.8319-24.53485 28.915-3.54186 11.07656-11.10043 15.19686-15.51586 8.45806-1.71451-2.6167-2.05764-5.96716-1.67273-16.33336l.48425-13.0414 10.82288-22.0761c6.51146-13.2818 13.10105-24.7015 16.54172-28.6666 3.14535-3.6248 8.88184-11.4853 12.74775-17.4678 3.8659-5.9825 7.68534-11.2829 8.48763-11.7787.80229-.4959 3.02081-3.4011 4.93004-6.4562 1.90922-3.055 5.21844-7.6546 7.3538-10.2212 7.64353-9.1874 13.04834-16.7664 16.34886-22.9254 1.92092-3.5846 5.78164-7.9297 9.03594-10.1697 7.46044-5.135 16.94731-15.3721 21.59489-23.3026 2.04955-3.4973 5.59535-7.3252 7.87956-8.5064s8.96536-7.0927 14.84696-13.1367c5.8817-6.0439 12.5421-12.1073 14.8011-13.4741 2.2589-1.3668 7.8653-5.8937 12.4587-10.0597 12.6565-11.4788 14.1501-17.828 9.375-39.8528-1.4991-6.9149-3.2604-15.2726-3.914-18.5726-.6535-3.3-2.4387-8.8133-3.9672-12.2518-1.5284-3.4385-3.3057-10.4463-3.9494-15.573-.6437-5.1266-1.537-9.91437-1.9852-10.63945-.4481-.72508-1.7322-6.61725-2.8536-13.09371s-3.4589-15.97539-5.1944-21.10872-3.5579-12.03333-4.0496-15.33333-2.6145-11.4-4.7172-18c-3.3104-10.39056-8.0457-35.9029-12.2501-66-1.6487-11.80216-1.8196-73.7692-.2455-89.02013 1.3798-13.36927.013-24.02229-4.2281-32.96029-3.75421-7.91148-10.81523-10.29326-39.48032-13.31728-16.16811-1.70565-17.5668-2.10457-32.56266-9.28705-8.61789-4.12767-18.11569-8.07002-21.10623-8.76078-2.99054-.69077-14.6442-1.2706-25.89703-1.28853-16.32568-.026-22.25265.48716-29.33333 2.53971-4.8805 1.41477-11.22259 2.96052-14.09351 3.435-5.09649.8423-32.18582 14.15575-39.7219 19.52191-6.20516 4.41847-11.86884 18.16603-9.19627 22.32229.99757 1.55139 2.88831 1.5877 11.6643.22404 7.87909-1.2243 14.23303-1.27602 25.64881-.20877 16.5429 1.54658 26.28188 5.03797 41.91482 15.02632 4.46878 2.85523 10.96813 5.60766 15.33333 6.49355 12.17456 2.47075 17.5454 5.36991 28.30701 15.28002 5.57439 5.13333 12.90345 11.5822 16.28678 14.33082 3.38333 2.74861 10.40928 11.14363 15.61321 18.65559 10.17368 14.68588 14.26996 24.94108 15.60811 39.0755.65435 6.91164.25954 9.12666-2.76706 15.52438-4.5238 9.56251-7.99986 13.92906-13.24952 16.64377-5.51846 2.85371-25.12394 7.10127-32.82088 7.1107-8.92321.0109-15.44076 2.23448-19.66136 6.7077-5.65616 5.99473-9.59414 6.73688-28.55795 5.38204-17.69376-1.26411-23.57183-3.18395-34.25467-11.18799-5.86526-4.39451-20.67021-7.33477-23.81216-4.7291-3.9507 3.27638-5.7814 10.11455-5.7814 21.5951 0 6.1568-.58616 14.28498-1.30258 18.06264-.71642 3.77765-1.43037 13.30955-1.58655 21.18198-.24311 12.25343.22486 15.94469 3.25143 25.64686 1.94448 6.23333 5.68923 18.23331 8.32167 26.66671 6.49807 20.8173 8.28843 33.4851 6.34008 44.8596-1.31757 7.6918-2.27535 9.6351-7.24434 14.6981-6.1851 6.3022-10.71167 8.731-26.96389 14.4679-5.78463 2.0419-12.4626 5.4204-14.83992 7.5077-5.19269 4.5592-22.77856 8.4553-33.36498 7.3919-3.69733-.3714-7.74733-.1017-9 .5993-3.67433 2.0563-2.80891 10.1087 2.21254 20.5867 9.32812 19.4645 16.95589 38.1255 18.07921 44.23.64019 3.479 1.59236 12.0254 2.11593 18.9921.52356 6.9666 1.48367 13.6774 2.13357 14.9128 1.2866 2.4456 22.93353 19.4464 37.84783 29.7245 5.13333 3.5376 13.23333 9.8061 18 13.9301 11.3517 9.8212 19.97529 16.8781 28.63456 23.4326 3.87531 2.9333 9.96789 7.5949 13.53906 10.3591s9.18901 6.9917 12.48407 9.3944c7.81583 5.6991 9.29894 8.9499 9.32265 20.4342.0136 6.6037.82779 11.30206 2.65704 15.33336 1.45056 3.1967 2.63738 8.2122 2.63738 11.1456 0 5.5162-3.84795 15.5467-7.52121 19.6056-2.38298 2.6332-15.21471 25.6967-28.03768 50.3944-5.0973 9.8176-11.02572 19.1323-14.42649 22.6666-6.68019 6.9426-13.78399 23.2739-14.93435 34.3334-.85937 8.2619.65531 8.9334 8.67356 3.8452zm-344.01205-38.5119c.77907-.9668.88783-2.8665.259-4.524-1.24406-3.2791-6.50228-7.3659-8.15948-6.3417-1.80722 1.1169-1.28034 6.3711.95956 9.569 2.32026 3.3127 4.92438 3.7992 6.94092 1.2967zm501.28156-29.0347c7.82347-15.6966 10.706-24.8415 8.50514-26.9829-1.35534-1.3187-2.60266-.6082-6.22669 3.5472-5.57496 6.3923-9.93566 17.5759-10.91079 27.982-1.03158 11.0084 1.55979 9.6436 8.63234-4.5463zm-729.74993 5.2657c5.30469-6.3042 4.79498-13.1088-1.38863-18.5381-4.34917-3.8186-5.04799-4.0425-6.88469-2.2058-2.72422 2.7242-3.72924 15.7255-1.61094 20.8395 2.1371 5.1594 5.48976 5.127 9.88426-.096zm80.78519.4336c3.74381-1.8702 4.97504-3.5178 6.22603-8.3313 2.09567-8.0635 2.14268-16.3573.1073-18.9317-3.44021-4.3514-21.57407-17.206-29.83215-21.1472-10.26685-4.9-15.2427-4.807-17.03427.3182-.98024 2.8042-.51566 5.2418 2.16003 11.3333 1.87489 4.2684 4.0789 12.456 4.89781 18.1945.81891 5.7386 2.13426 11.6396 2.923 13.1134 3.65684 6.8329 21.43606 10.0048 30.55225 5.4508zm58.66666-13.6896c0-4.5619-5.63085-21.5289-8.69859-26.2109-3.23583-4.9385-5.40198-3.67-8.56991 5.0183-2.51083 6.8862-2.71629 8.702-1.35619 11.9856 2.25179 5.4363 11.26304 13.232 15.2952 13.232 2.81515 0 3.32949-.6218 3.32949-4.025zm37.33333-9.8074c0-1.7411-.92974-5.7911-2.06609-9-1.13635-3.2088-3.5748-11.2343-5.41878-17.8343-3.7486-13.417-10.11753-26.6015-22.86489-47.33326-10.04099-16.3303-11.92283-18.6667-15.03471-18.6667-4.06157 0-5.34746 11.4309-2.14218 19.0428.99368 2.3598 3.9977 6.9021 6.67562 10.09406 6.00099 7.1529 6.88445 10.4429 5.1541 19.1942-1.55973 7.8884.48379 18.0048 5.42087 26.8358 2.40504 4.3019 4.2134 5.6745 9.89692 7.5124 4.46102 1.4425 8.93891 4.2334 12.49019 7.7847 6.35009 6.3501 7.88895 6.8125 7.88895 2.3703zm42.60253-2.5009c-.0881-4.1213-9.39022-22.4209-12.30715-24.2113-4.84819-2.9757-6.71924 6.5217-2.81277 14.2775 5.10796 10.1412 15.26706 16.8158 15.11992 9.9338zm-204.0217-4.9541c3.49167-1.8687 13.93515-29.1499 12.54531-32.7718-1.1818-3.0797-26.68821-19.2741-30.35701-19.2741-4.0023 0-5.55215 1.967-7.43201 9.4326-1.52254 6.0466-1.512 6.0788 3.69655 11.3156 3.89476 3.9159 6.13364 7.9968 8.80167 16.0434 3.09599 9.3373 7.29346 16.5417 9.6376 16.5417.38631 0 1.78486-.5793 3.10789-1.2874zm570.92726-9.0459c2.36658-3.4834 7.29706-9.6334 10.95661-13.6667 13.97025-15.3971 17.97612-26.5386 11.2386-31.2577-3.09975-2.1712-15.09684-2.8439-17.98494-1.0085-3.16046 2.0085-5.71838 10.9075-5.71838 19.8943 0 5.0499-1.17818 13.167-2.66667 18.3719-4.47821 15.6595-3.04444 18.2925 4.17478 7.6667zm-479.35292-1.1436c1.04523-4.1645-2.66599-38.5334-6.17544-57.18976-1.37948-7.3333-2.89829-16.9333-3.37512-21.3333-1.01185-9.3368-6.42552-22.4995-8.91807-21.6832-5.04086 1.6509-4.44503 15.3375 2.91753 67.01646 1.46266 10.2667 2.67511 21.2454 2.69433 24.397.0272 4.4572.81878 6.4568 3.56297 9 4.64487 4.3048 8.18117 4.2259 9.2938-.2072zm-27.98101-18.4961c.41642-1.0852-.49998-12.0352-2.03644-24.3334-4.89759-39.20146-5.38858-44.46806-6.87016-73.69356-1.54921-30.5597-1.89489-33.2393-4.01452-31.1197-1.53982 1.5398-7.51921 33.2324-9.39312 49.7863-4.09797 36.2011-5.55568 46.7266-7.36758 53.19816-1.10842 3.9589-1.67743 8.5443-1.26445 10.1897.47578 1.8957 4.97941 5.7309 12.29316 10.4686 11.58651 7.5055 17.24437 9.175 18.65311 5.5039zm399.99561-9.2476c5.03995-1.038 13.36355-2.575 18.49688-3.4155 10.50536-1.7201 15.33333-4.2261 15.33333-7.959 0-5.4074-7.02384-10.57116-33.60935-24.70896-14.88152-7.9138-34.0767-18.235-42.65595-22.9361s-23.66248-12.3791-33.51828-17.0623c-26.26996-12.4826-32.88307-13.7084-32.88307-6.0949 0 5.7546 8.80378 17.9353 26.84494 37.1421 18.69541 19.9034 36.47636 34.08076 52.41786 41.79456 11.74662 5.6841 15.63734 6.1103 29.57364 3.2401zm233.05066-7.7794c1.07173-1.65 3.49513-7.7559 5.38535-13.56866 1.89021-5.8128 4.87946-12.4602 6.64277-14.7721 7.42192-9.7306 14.20329-28.4765 9.76643-26.9976-3.98207 1.3274-30.00919 54.31776-28.1537 57.31996 1.22409 1.9806 4.43557.9799 6.35915-1.9816zm-307.99616.8574c5.01738-1.9254 1.17658-7.6714-19.95749-29.85706-6.63659-6.9668-14.5921-16.0988-17.6789-20.2933-6.07095-8.2494-9.7263-10.9383-13.30492-9.7869-1.25563.4039-6.33297 4.5978-11.28296 9.3197-7.69394 7.3393-9 9.249-9 13.1596 0 6.7965 3.85414 10.5773 19.00697 18.6452 27.36056 14.56776 45.88631 21.24216 52.2173 18.81276zm-434.24256-4.8574c4.18723-4.5188 6.22252-13.51536 4.07244-18.00136-1.95308-4.075-18.69356-17.2254-23.59492-18.5349-4.51048-1.2051-7.21161 2.7334-6.08302 8.8696 1.3628 7.4096 8.45193 22.99106 12.28425 26.99996 4.29684 4.4949 9.53124 4.7569 13.32125.6667zm569.7752-2.502c1.85369-3.4636.002-8.30806-3.99363-10.44626-2.17526-1.1642-3.22814-.9202-5.39941 1.251-3.23978 3.2398-3.37025 5.14306-.62161 9.06726 2.66645 3.8069 8.00923 3.8752 10.01465.128zm222.01372-14.72306c5.5909-7.4572 12.8901-18.4072 16.2204-24.3334 3.3304-5.9262 8.3349-14.8444 11.1212-19.8184 2.7862-4.9739 6.8225-11.2739 8.9694-14 5.5252-7.0157 26.8556-42.3742 28.6042-47.416.8025-2.3139 3.3695-7.2071 5.70433-10.8738 2.3348-3.6667 5.9123-9.9667 7.95-14 2.0376-4.0333 5.0368-9.1333 6.6649-11.3333 1.628-2.2 3.6633-6.1 4.5228-8.6667s2.9269-6.7667 4.594-9.3333c3.9522-6.0845 8.0101-17.5216 14.1428-39.8613 2.7386-9.9763 6.8029-22.3387 9.0317-27.472 4.8172-11.095 6.5721-18.5566 8.153-34.6667 1.8897-19.2554.1682-35.4722-5.0247-47.33335-2.4079-5.5-5.4528-13.05935-6.7666-16.79857-3.5152-10.00515-12.3788-25.81937-14.4859-25.84546-1.5057-.0186-1.6681 3.32651-.9214 18.97737 1.1319 23.72419-.7467 45.22941-5.0376 57.66671-6.1947 17.9553-9.9676 28.0528-12.9436 34.6411-2.2404 4.9595-3.0698 9.5172-3.2759 18-.2528 10.4048-.8372 12.6467-6.95863 26.6922-3.6755 8.4333-8.5362 19.8333-10.8016 25.3333s-6.8447 16.4163-10.1762 24.2585-6.0573 14.7888-6.0573 15.4368c0 .6481-1.5 4.8698-3.3333 9.3817-1.8333 4.5118-3.3333 9.9249-3.3333 12.0289 0 2.1041-2.0338 7.666-4.5196 12.3598-2.4857 4.6939-6.4208 13.9343-8.7445 20.5343s-5.9539 14.7-8.0671 18c-4.3155 6.7391-18.7506 37.8145-21.36787 46-.93791 2.9333-2.48107 6.5333-3.42925 8-2.17093 3.3581-4.84504 15.09176-3.8181 16.75336 1.61025 2.6055 3.50965.8582 13.38372-12.31176zm-733.03728 9.2917c1.12851-1.1285 1.6-8.8301 1.6-26.1356 0-30.9737 1.85506-58.3226 5.59845-82.5374l2.92791-18.9396-5.09222-7.3937c-9.20734-13.3686-11.5234-10.0679-18.66924 26.6063-5.19907 26.683-8.62414 42.3168-13.72906 62.6667-6.00759 23.9482-6.4923 27.6847-3.87336 29.8582 4.26096 3.5363 26.70849 17.47516 28.14246 17.47516.82228 0 2.21506-.72 3.09506-1.60006zm151.4189-11.2537c1.25685-9.1698-3.27088-24.4297-11.20794-37.7742-7.99471-13.4414-16.40879-24.6453-17.05428-22.7088-.26368.7911.18887 5.2759 1.00566 9.9663 1.20696 6.9308 1.12041 9.5865-.46212 14.1798-2.28508 6.6325-1.57736 8.6023 5.93689 16.524 2.78246 2.9333 6.97095 8.9333 9.30776 13.3333 4.55792 8.5822 9.11852 14.283 10.66271 13.3286.52431-.324 1.33941-3.4061 1.81132-6.849zm328.61765-16.9121c.68243-3.579-3.44222-7.3936-9.64832-8.923-3.00021-.7394-8.92412-2.3377-13.16424-3.5518-5.45679-1.5624-8.12453-1.7922-9.13037-.7863-1.91169 1.9116 3.77628 6.0274 16.34933 11.8301 10.57998 4.8828 14.86052 5.2756 15.5936 1.431zm-535.85101-8.8225c2.70528-1.7117 3.83801-13.0487 3.96862-39.7202.0619-12.6364.70168-27.0364 1.42178-32 4.51543-31.1248 6.66357-47.6508 7.41237-57.0248.46863-5.8667 1.71813-16.2413 2.77666-23.0548 2.01718-12.9841 1.62645-16.2052-1.63725-13.4965-3.03176 2.5161-11.8268 22.3727-14.33497 32.3642-1.2628 5.0304-3.7477 12.011-5.52201 15.5124-8.91275 17.5885-28.67074 77.138-28.67074 86.4121 0 8.1105 1.69503 10.4068 16.02515 21.7095 13.24153 10.4442 15.19918 11.4249 18.56039 9.2981zm584.06844-10.7686c-1.71961-3.2132-25.73416-24.2838-33.70109-29.5698-7.02746-4.6626-11.62161-4.9553-11.6146-.7399.008 4.6143 4.5068 10.952 10.19099 14.3554 2.82554 1.6918 6.4159 4.2163 7.97856 5.6102 4.41358 3.9367 22.14156 12.9602 25.53904 12.9993 2.64552.031 2.85724-.3193 1.6071-2.6552zm187.96573-10.5554c2.34013-4.3726 1.46794-6.2994-1.33078-2.9399-1.44227 1.7312-2.62231 3.6812-2.62231 4.3333 0 2.1376 2.54306 1.2413 3.95309-1.3934zm-570.88188-26.3453c.31706-3.1762-.49768-4.8113-3.76897-7.5639-4.69015-3.9465-6.63554-4.4152-6.63554-1.5986 0 5.3811 5.77284 14.5989 8.56934 13.6832.78687-.2576 1.61269-2.2919 1.83517-4.5207zm237.79642-11.7293c3.92281-1.8262 9.04333-3.3262 11.37892-3.3334 9.93455-.03 14.75575-5.3316 7.42014-8.1588-4.29306-1.6546-41.96321.9254-46.33333 3.1733-9.19313 4.7288-1.68894 11.4862 12.8676 11.587 5.31472.037 9.63543-.926 14.66667-3.2681zm-270.62315-.9686c-.95675-.9568-1.57778-1.0355-1.57778-.2 0 1.7797 1.57682 3.3565 2.46667 2.4667.37889-.3789-.0211-1.3989-.88889-2.2667zm-6.91467-19.0552c-1.69904-5.1482-3.99644-6.2184-3.99644-1.8616 0 3.8269 4.51625 11.4653 5.09984 8.6254.23825-1.1594-.25828-4.2031-1.1034-6.7638zm-42.03977-13.6297c-.042-10.3903-1.9279-16.0254-4.77441-14.2662-1.68317 1.0403-1.46551 16.6962.30263 21.7683 2.56782 7.366 4.51865 4.0932 4.47178-7.5021zm-152.08003-2.8308c1.78388-2.8258 5.07138-10.3169 7.30556-16.6468s5.0481-13.4156 6.25316-15.7459c1.20505-2.3303 3.27172-7.2892 4.59259-11.0198s5.20918-13.9829 8.64069-22.7829c11.5525-29.6261 11.60331-29.8027 9.98515-34.7057-.80532-2.4402-3.81879-8.0796-6.69659-12.5322-5.2393-8.1062-8.71887-10.0245-11.66112-6.4288-2.18204 2.6667-7.78453 17.2605-11.49871 29.9527-7.02614 24.0101-15.378065 79.5379-13.37177 88.9024 1.64828 7.6936 2.17782 7.7762 6.45104 1.007zm63.88161-13.2616c7.68143-8.4879 8.7329-30.9338 1.44908-30.9338-2.20018 0-5.67425 11.7098-5.93359 20-.43802 14.002.23119 15.6337 4.48451 10.9338zm42.82738-37.5109c1.6278-1.7987 2.07682-3.7117 1.48658-6.3334-1.12176-4.9824-9.56345-16.4228-12.11816-16.4228-2.82417 0-4.81927 6.0573-4.35014 13.2076.33949 5.1745 1.04353 6.4722 4.92661 9.0814 5.52436 3.7121 7.05417 3.7832 10.05511.4672zm848.61589-12.6881c10.7548-5.5615 17.1697-30.0178 13.5871-51.8-1.7902-10.8849-3.3991-10.5477-9.1588 1.9191-3.5338 7.6488-5.4595 13.9859-6.0341 19.8567-.4642 4.7425-2.0631 11.7792-3.5532 15.637-3.0861 7.9901-3.4191 12.4092-1.1092 14.7191 1.9847 1.9846 1.7662 1.9962 6.2682-.3319zm-801.65543-18.6612c-.43765-1.1405-1.41456-2.0736-2.17091-2.0736-1.56033 0-1.89035 7.0404-.39988 8.5308 1.38933 1.3894 3.52414-3.9728 2.57079-6.4572zm-72.14471-13.3641c2.0024-4.7924 2.52914-12.2685 1.12264-15.9338-1.25826-3.279-5.25786-2.4853-7.02544 1.3941-2.0341 4.4643-3.415 14.3875-2.37816 17.0894 1.48292 3.8645 6.20895 2.4093 8.28096-2.5497zm513.26526-18.5896c16.04105-5.5771 20.67555-9.9455 20.63853-19.4532-.0361-9.2742-9.82762-47.39142-19.38643-75.46908-5.89412-17.31314-6.2142-30.80773-1.2521-52.78953 4.08439-18.09359 4.08385-17.77424.0574-33.64698-2.40768-9.49138-4.56571-14.67116-8.14225-19.54339-7.23912-9.86166-8.51048-15.64013-7.96124-36.18478.26024-9.73478.90467-22.83767 1.43206-29.11753 1.01825-12.12475-.014-15.91327-7.51737-27.58958-4.53217-7.05271-4.72776-17.70345-.55691-30.32583 1.93855-5.86667 4.98646-13.29224 6.77314-16.50127 5.25265-9.43418 4.22322-13.43238-3.96341-15.39347-10.61539-2.5429-16.09537-15.18082-12.85709-29.65103 3.14575-14.0567 9.92092-17.2063 28.06902-13.0486 10.89827 2.4968 27.59736 4.4399 45.33333 5.2751 60.01121 2.8259 66.15894 2.9068 78.66666 1.0363 30.25895-4.5254 69.71585 6.0705 93.54888 25.12194 4.46839 3.5719 8.69554 6.49437 9.39364 6.49437.7701 0 .8343-1.70454.1634-4.33334-.60825-2.38333-1.06123-7.39191-1.0066-11.13017.0867-5.9319.9518-8.0068 6.7984-16.3053 11.292-16.0276 21.4214-48.0717 25.1509-79.5645 2.0422-17.2449 2.0481-20.3423.078-40.6667-2.8892-29.8037-6.9872-44.7675-14.5148-53-3.3888-3.7062-6.6822-3.7919-12.2995-.3202-3.9798 2.4597-8.49506 3.3471-33.28247 6.5418-4.94524.6374-9.75282.4803-12.66667-.4138-2.58297-.7926-13.69632-1.4714-24.69632-1.5085-11-.037-23.29999-.4848-27.33333-.995-4.03333-.5101-16.33333-1.2464-27.33333-1.6361s-22.7-1.2733-26-1.9636c-8.2247-1.7205-23.55055-1.6635-30 .1114-2.93333.8073-10.73333 4.1117-17.33333 7.343-8.69897 4.259-14.60683 6.1964-21.47642 7.0427-5.21203.6422-10.78981 1.8704-12.39506 2.7295-3.91993 2.0979-15.07111 3.9369-32.79518 5.4085-8.06667.6697-19.16667 1.8497-24.66667 2.6222-5.80709.8156-38.51176 1.4691-77.99999 1.5586-37.4.085-73.7.7524-80.66666 1.4836-6.96667.7311-23.46667 1.4907-36.66667 1.688-15.01899.2245-28.64861 1.1923-36.42251 2.5863-14.47889 2.5964-18.49295 2.0287-23.63955-3.3432-8.56585-8.9408-16.82066-2.0515-26.39154 22.026-3.41718 8.5966-6.21306 16.6386-6.21306 17.8711 0 1.2326 1.02873 3.7097 2.28607 5.5048 4.3203 6.1681 2.91645 15.2549-4.54362 29.4096-8.53201 16.1885-19.33067 40.9815-25.22719 57.92-5.03808 14.4725-13.10523 45.70826-14.50294 56.15502-1.45837 10.90013-5.84556 32.46717-9.32582 45.84495-4.49238 17.26822-8.2977 35.18113-9.34713 44-.47995 4.03333-2.28066 13.63333-4.00155 21.33333-10.75048 48.10201-9.84135 52.62733 6.29483 31.33333 5.95968-7.86465 16.88245-18.8179 32.05202-32.14147 6.40536-5.62588 7.98475-7.90636 9.48725-13.69862 2.3601-9.09845 9.98183-19.98451 20.49326-29.2704 4.65964-4.11636 10.14661-10.20047 12.19327-13.52023 2.13509-3.46319 7.29244-8.59337 12.09968-12.03594 4.60815-3.3 10.79037-7.97579 13.73826-10.39065 6.79708-5.56806 7.57782-5.96611 19.63694-10.01176 6.95564-2.33352 13.95337-3.53797 22.98587-3.95635 11.66625-.54038 13.53887-.99306 18.42784-4.4547 2.99309-2.11926 7.23914-5.0532 9.43567-6.51987s7.26148-5.44152 11.25544-8.83301c4.89258-4.15455 10.62761-7.36445 17.57846-9.83869 9.87955-3.51675 11.41845-3.67527 36.31671-3.74103 27.83693-.0735 33.43266.84138 38.56596 6.30553 4.05609 4.31751 3.41429 11.4011-1.23262 13.60469-20.74834 9.83892-31.27415 14.07451-37.49074 15.08629-4.2998.69981-10.14359 2.9342-13.89307 5.31205-3.55938 2.25729-7.55414 4.10417-8.87723 4.10417-4.68243 0-7.73896 4.82099-7.73896 12.20645 0 6.30927-.44733 7.29864-5.45285 12.06028-3.15886 3.00495-5.15139 5.97278-4.73627 7.05456 1.08971 2.83974 13.33805 6.01331 28.18912 7.30385 14.14773 1.22943 20.43168 2.89356 26.26788 6.95632 4.63639 3.22752 29.54186 32.56532 36.91856 43.48878 7.04557 10.43314 8.98599 15.02758 11.51522 27.26522 2.92581 14.1565 4.31131 16.78469 10.4892 19.89722 15.69638 7.90814 29.73008 21.40576 34.75172 33.42426 1.11921 2.67864 3.37394 13.75163 5.01051 24.60665 2.65096 17.58322 2.9324 23.91558 2.57974 58.04352-.21771 21.06892-.004 39.54142.47472 41.05002.4788 1.5086 3.37298 4.3077 6.4315 6.2202 6.35164 3.9718 7.45664 5.4547 10.22761 13.7258 1.25969 3.76 3.23385 6.6068 5.33333 7.6909 4.71112 2.4327 28.06029 1.4515 36.66666-1.5408zm-74.76267-9.3534c-.0822-5.5547-.70982-7.0386-4.35437-10.295-7.9874-7.1367-12.27952-3.6846-7.37044 5.928 6.84899 13.4112 11.88636 15.2874 11.72481 4.367zm-323.2373-.2274c0-4.5588-16.3302-24.5391-20.05619-24.5391-3.39847 0-5.5193 4.3878-5.02093 10.3879.38338 4.6158.9703 5.2202 8.89795 9.1644 4.66812 2.3225 9.13812 4.8733 9.93333 5.6685 2.17897 2.179 6.24584 1.7351 6.24584-.6817zm-146.83309-3.7616c1.55118-3.246 1.60006-6.8844.2956-22-2.28631-26.4929-2.40312-27.0206-5.87178-26.527-2.17876.3101-4.36841 3.2969-8.59072 11.7182-3.11667 6.2162-5.66667 12.8937-5.66667 14.8389 0 3.8647 5.54085 16.9904 9.68091 22.933 3.30896 4.7497 7.61799 4.3409 10.15266-.9631zm837.74641-9.5311c.5823-2.1522.6832-6.0131.2242-8.5797-1.5288-8.5494-10.9951-24.5749-13.2118-22.3665-1.3565 1.3513 3.1005 23.1555 6.1632 30.1517 2.8175 6.436 5.2223 6.7159 6.8244.7945zm-771.50293-14.6181c-1.02652-3.6456-2.50557-10.1901-3.28676-14.5433-2.00889-11.1947-4.71723-13.25561-3.6161-2.7517.993 9.4724 3.70352 21.9418 5.31469 24.4495 2.39827 3.7329 3.39259-.7464 1.58817-7.1545zm403.45374-10.295c2.63465-4.865 2.28657-58.94597-.46554-72.33331-1.20605-5.86667-2.55628-13.27965-3.00052-16.4733-1.3429-9.65425-8.00101-20.19337-12.75719-20.19337-3.91346 0-6.29062 4.26046-12.39408 22.21325-6.80765 20.02405-8.439 28.98885-9.55196 52.49122l-.79105 16.70446 3.71476 3.49275c5.26195 4.9476 27.01605 17.0983 30.6119 17.0983 1.75022 0 3.6887-1.255 4.63368-3zm380.87942-24.44179c.7288-25.86043-4.1924-65.27032-11.74243-94.03493-3.3274-12.67719-19.5212-43.85659-22.7779-43.85659-1.8778 0-2.6342 2.35545-4.5924 14.30167-2.6306 16.04753-2.4401 27.04792.761 43.96398 3.3684 17.79946 9.7832 37.61119 20.6968 63.92053 15.37243 37.05803 17.01213 38.51663 17.65493 15.70534zm-870.66633-2.89152c6.59995-11.43436 13.19609-24.57474 16.34596-32.56336 2.43964-6.18734 2.43671-6.25515-.4282-9.89728l-2.88466-3.66726 3.88189-2.76939c9.81204-7.00001 10.41361-8.14774 9.44148-18.01337-.8252-8.37447-.39996-10.62948 5.77072-30.60145 3.66386-11.85842 9.06856-27.69437 12.01043-35.19099 2.94188-7.49663 5.74837-15.43023 6.23665-17.63023s2.2864-6.7 3.99583-10c3.95472-7.63448 13.30381-29.15277 16.75036-38.55339 1.45591-3.97104 4.04011-9.97104 5.74268-13.33334 1.70257-3.36229 4.00209-9.16877 5.11005-12.90328 1.10796-3.7345 3.31805-9.34523 4.91131-12.46827 1.74614-3.42273 3.3474-9.99412 4.03112-16.54332.62386-5.97578 2.05328-16.56506 3.1765-23.53172 2.7659-17.15524 3.35631-42.01531 1.05185-44.28901-1.41341-1.3946-2.07852-1.2444-3.59699.8125-1.02462 1.3879-7.29107 18.9392-13.92545 39.00285-6.63437 20.06363-15.09227 43.82806-18.79532 52.80983s-8.41733 21.13049-10.47617 26.99716c-2.05884 5.86666-6.48771 16.66666-9.84193 23.99999-11.54726 25.24579-20.65657 48.08229-25.53801 64.02231-2.69114 8.78773-6.70264 21.07769-8.91443 27.31102-8.9471 25.21489-14.25916 51.25801-15.40935 75.54643-.84598 17.86442-.40177 20.45357 3.50914 20.45357 1.86928 0 4.17975-2.6508 7.84454-9zm42.9528 3.33333c7.14985-11.65864 12.48552-36.40956 9.48529-44-2.44302-6.18072-5.96848-4.66388-12.39578 5.33334l-5.78619 8.99999.2374 13.33334c.2373 13.32788 1.80539 20.66666 4.41586 20.66666.76226 0 2.5818-1.95 4.04342-4.33333zm55.96998-6.33333c0-.73334-.6-1.33334-1.33333-1.33334-.73334 0-1.33334.6-1.33334 1.33334 0 .73333.6 1.33333 1.33334 1.33333.73333 0 1.33333-.6 1.33333-1.33333zm2.42486-29c.65194-1.28334 1.94376-6.90048 2.8707-12.48255 1.46523-8.82368 1.38962-11.52286-.57889-20.66667-2.23439-10.37886-6.82231-21.85078-8.73869-21.85078-2.27056 0-4.17549 4.25999-5.45791 12.20547-.7511 4.65366-2.2636 13.05519-3.3611 18.67006-2.37611 12.15637-1.02491 19.46317 4.38632 23.71964 4.26247 3.35286 9.28697 3.53982 10.87957.40483zm290.97467-38.36757c8.13723-4.20793 2.49131-15.50284-14.33867-28.68512-9.0329-7.07513-13.72754-15.16341-13.72754-23.65081 0-3.19283-.65725-7.03323-1.46056-8.53422-1.25501-2.34501-2.24013-2.59724-7-1.79226-3.04669.51525-9.17362 1.41025-13.61539 1.98889s-12.35792 2.93144-17.59144 5.22844c-5.23352 2.29701-12.39934 4.50827-15.92405 4.91392-10.67547 1.22862-11.89086 1.70196-13.5133 5.26284-3.6756 8.06706-.81738 15.35238 8.79 22.40485 3.53697 2.59638 9.40473 5.43133 13.03947 6.29989 3.63473.86856 10.5086 3.8739 15.27527 6.67853 15.31112 9.0088 50.54711 14.80756 60.06621 9.88505zm-329.39953-14.63243c3.0721-2.56667 6.23163-4.66667 7.02117-4.66667 2.52193 0 6.31172-4.31792 6.32519-7.20664.007-1.53635 1.53532-6.06369 3.39589-10.06077l3.38287-7.26743-2.93638-8.06591c-3.60474-9.90182-4.48376-10.9775-7.15733-8.75864-2.6619 2.20918-23.36474 44.93661-23.36474 48.22118 0 4.26139 6.98104 3.11207 13.33333-2.19512zm577.3333-14.52401c0-.28821-.9-.86938-2-1.29149s-2-.1863-2 .52402c0 .71031.9 1.29148 2 1.29148s2-.2358 2-.52401zm-24.6314-4.86638c1.1311-1.83016-4.7218-13.40131-7.67691-15.1772-3.20167-1.92407-6.97338 1.86266-5.73659 5.75944 2.33089 7.34399 10.95355 13.39804 13.4135 9.41776zm-494.8171-4.27627c2.66092-4.10155 12.3162-43.15537 13.99321-56.59993.75007-6.01329 2.27454-13.11305 3.38771-15.77725 3.66395-8.76905 8.45649-42.47974 6.23446-43.85303-1.93929-1.19855-7.26877 6.53015-11.97813 17.37042-2.26359 5.21044-9.20435 19.44343-15.42393 31.62887-13.77244 26.98306-15.34095 31.88925-11.75285 36.7619 4.39237 5.96484 5.49932 8.81649 6.95184 17.90894 2.44054 15.27718 4.69028 18.56757 8.58769 12.56008zm580.26649-.8747c5.92891-3.61534 10.1462-13.17311 10.87762-24.65226.72528-11.38281.54553-11.59969-15.58969-18.81041-8.9859-4.01574-11.91404-4.77636-14.66666-3.80985-3.12878 1.09859-3.53731 2.10582-4.52533 11.15729-1.38761 12.71214-3.58663 17.20769-10.95919 22.40436-3.27511 2.3085-5.95474 4.78853-5.95474 5.51118 0 2.03303 5.02283 4.30476 16.66667 7.538 13.38301 3.71618 18.89453 3.86718 24.15132.66169zm-278.06365-4.17222c6.32324-3.38409-1.14925-12.2105-10.5661-12.48053-4.67523-.13407-4.84726.0244-4.64874 4.28192.37556 8.05441 7.90409 12.11121 15.21484 8.19861zm161.23102-17.25906c.77689-1.45162 1.02981-4.16414.56205-6.02783-.89021-3.54689-9.26129-11.33286-12.18453-11.33286-3.1359 0-1.19006 13.40858 2.66051 18.33333 2.0084 2.56868 7.37864 1.98585 8.96197-.97264zm48.0906-5.43665c3.88465-3.88465 3.19839-12.40958-1.04755-13.01305-3.57956-.50875-9.69507 5.12616-9.69507 8.93317 0 3.07024 3.35228 6.82251 6.09523 6.82251 1.04762 0 3.13895-1.23418 4.64739-2.74263zm182.29716-2.25737c1.911-4.27136 2.184-9.17754 1.8737-33.66667-.3702-29.21232-1.3429-37.0367-4.9796-40.05483-4.7085-3.90774-5.2772.0995-5.0346 35.47762.2817 41.10544 2.4025 51.06882 8.1405 38.24388zm55.64933-20.66667c-.409-12.65-1.0213-27.5-1.3607-33-.3415-5.53363.2555-15.65738 1.3366-22.66666 2.457-15.9285 2.6031-28.89459.335-29.71107-2.4745-.89074-14.25213 3.8366-17.75343 7.12591-5.2773 4.9577-6.5573 14.1752-4.6119 33.2106.9392 9.18934 2.585 19.10789 3.6575 22.04122 1.0725 2.93334 4.5385 12.53334 7.7021 21.33334 3.16373 8.8 6.46793 17.94999 7.34273 20.33333 3.2692 8.9069 4.0949 4.30925 3.3521-18.66667zm-551.56097 19.49761c4.1462-1.19298 9.93265-3.37869 12.85879-4.85714 6.53248-3.30058 16.26174-3.43936 25.13723-.35856 6.42884 2.23153 6.48047 2.22626 11.63808-1.18689 3.1237-2.06716 7.0618-3.42835 9.91868-3.42835 2.60594 0 6.89208-.9 9.52475-2 6.87408-2.87218 12.56197-2.48441 22.31629 1.52139 27.2866 11.20577 7.65254-17.65191-22.33346-32.82521-11.59746-5.86846-31.90985-10.55848-38.53117-8.89663-1.90515.47816-6.65743 3.55047-10.56061 6.82736-3.90319 3.27689-10.3272 8.52638-14.27557 11.66554-13.89982 11.05103-24.53476 35.70755-15.40152 35.70755 1.19348 0 5.56231-.97608 9.70851-2.16906zm286.67632-18.44635c3.1708-3.27181 9.04811-8.12789 13.0607-10.7913 8.75469-5.81103 10.56596-9.51601 7.84074-16.03838-2.11709-5.06691-8.31084-8.55491-15.19122-8.55491-9.00644 0-36.18135 13.02089-36.18135 17.33633 0 1.13754 10.53726 14.29074 16.23077 20.26018 1.96026 2.05525 4.66912 3.73682 6.01969 3.73682 1.35058 0 5.04988-2.67693 8.22067-5.94874zm47.95325-35.03836c.59651-4.19876-5.56215-7.11323-8.6038-4.07158-1.67507 1.67508-1.77799 2.6469-.52773 4.98304 2.1324 3.98442 8.52664 3.34619 9.13153-.91146zm-76.11446-10.58929c.74064-2.25051-4.88171-5.05181-6.63011-3.30342-2.20151 2.20151-.0346 5.78396 3.20979 5.30666 1.59584-.23476 3.13498-1.13622 3.42032-2.00324zm-311.32993-14.54332c11.78584-4.50362 16.80338-11.21362 8.38522-11.21362-7.80015 0-19.36519 7.74181-19.36519 12.96334 0 2.31067.60729 2.2139 10.97997-1.74972zm563.89506-21.90506c5.0243-14.41271 12.1761-25.85432 23.764-38.01815 6.6152-6.94399 12.02763-13.12755 12.02763-13.74123 0-1.30244 17.1536-16.57738 34.6808-30.88248 6.7388-5.5 13.3924-11.4309 14.7858-13.1798 3.6153-4.5378 3.2916-12.8962-.7545-19.4869-1.8008-2.9333-4.2493-9.6442-5.441-14.9129-1.8488-8.1739-1.9027-10.1305-.3676-13.3334 1.5277-3.1874 2.6009-3.7537 7.1145-3.7537 5.3108 0 5.3198.01 10.6487 10.6667 6.8794 13.7589 8.6974 13.9264 15.7416 1.45 6.0611-10.7354 8.661-24.0508 6.3329-32.434-.7661-2.7588-1.4025-7.416-1.4142-10.3494-.012-2.9333-1.2176-11.0333-2.68-18-3.415-16.2693-6.7652-57.5264-6.8209-84-.042-19.868-.1939-21.0102-3.9348-29.5568-2.1402-4.8896-3.8913-9.7391-3.8913-10.7768s2.4717-3.8731 5.4928-6.3008c3.021-2.4278 6.5462-6.8782 7.8338-9.8898 18.2971-42.796297 18.5641-44.123897 7.5794-37.686497-6.4939 3.8057-14.4408 14.5477-18.3057 24.7443-1.2786 3.3732-3.0525 10.9331-3.9422 16.799797-1.7115 11.2865-2.6648 14.4384-8.8698 29.3243-3.6558 8.7703-4.3458 9.5625-11.613 13.3333-4.2495 2.205-8.3483 5.1326-9.1085 6.5058-1.7633 3.1851-.6413 36.4736 2.0505 60.8366 1.3492 12.2111 3.3117 21.9728 6.1024 30.3532 5.6443 16.9498 5.6643 27.4511.073 38.6396-2.4849 4.9727-6.3297 9.9614-9.9873 12.9585-3.2708 2.6802-8.4259 9.0457-11.4557 14.1455-3.0297 5.0999-8.8527 12.4144-12.94 16.2545-7.9708 7.4889-9.8572 9.3868-22.34713 22.4841-8.5476 8.9632-17.1514 22.6994-21.1908 33.83124-1.3305 3.66667-6.2335 12.45521-10.8956 19.53009-4.6621 7.07489-8.4743 14.27489-8.4715 16 .01 5.9167 11.9263 22.46991 16.1764 22.46991 1.7204 0 3.1072-1.386 4.027-4.02478zm-697.15215-6.60641c3.18538-5.67148 8.77707-19.41714 16.49944-40.55944 1.04275-2.85484 2.21389-12.15484 2.60252-20.66671.84851-18.5839 3.42183-32.7855 7.32815-40.4425 1.58505-3.107 4.23922-9.5605 5.89817-14.3413 5.39138-15.5367 22.63741-51.2502 30.39109-62.9346 8.40675-12.6685 9.14978-18.4243 2.37845-18.4243-5.52464 0-9.06654 3.3692-11.56481 11.0008-2.61242 7.9802-7.71317 18.6059-11.5267 24.0119-7.90319 11.2035-30.52885 75.1873-33.0979 93.5985-.71203 5.1028-1.58214 10.2028-1.93358 11.3333-.35145 1.1306-1.21185 6.14013-1.91201 11.1324-.90409 6.44637-2.51549 11.0131-5.56037 15.75813-3.74122 5.83019-4.44203 8.38932-5.5016 20.09007-1.72481 19.04694-.26255 21.59255 5.99915 10.44375zm232.44588-20.30855c.44554-.72089-.54158-1.08905-2.24967-.83906-1.67396.24501-3.27481 1.14825-3.55746 2.00722-.60923 1.8514 4.58694.80615 5.80713-1.16816zm205.64024-30.24734c2.18479-1.38435 1.5146-1.80818-7.52527-4.75906-10.7382-3.5052-14.90527-.2312-5.12368 4.02562 4.79852 2.08824 10.03188 2.3917 12.64895.73344zm364.29856-16.31116c6.0735-3.2371 8.417-5.4101 10.52-9.7543 2.8474-5.8819 3.6767-17.3233 1.3596-18.7554-1.9451-1.2021-7.4658 3.5461-14.3517 12.3436-15.4896 19.7897-14.6483 25.2912 2.4721 16.1661zm-811.11124-14.8351c.72756-.9167 2.07792-4.0667 3.00081-7 2.10704-6.6971 17.64903-46.4026 22.73311-58.0769 5.0637-11.6275 6.74541-19.2677 4.78422-21.7352-1.05024-1.3214-5.39702-2.0942-14.18112-2.5212-11.15162-.5421-14.26145-1.2912-26-6.2625-18.18287-7.7004-19.0056-7.8409-20.11195-3.4328-1.23932 4.9378 4.91349 23.1493 11.25851 33.3237 11.28952 18.1029 13.75848 29.6897 8.23187 38.632-3.5911 5.8105-3.27474 11.1704 1.28487 21.7696 3.02478 7.0312 6.16125 8.8795 8.99968 5.3033zm711.22031-14c7.4347-7.6984 10.6132-15.8791 15.1528-39 1.0799-5.5 1.9635-14.5737 1.9636-20.1638.0002-7.0501.7766-11.9518 2.5343-16 3.2119-7.3974 4.8914-17.1695 2.9507-17.1695-2.0539 0-4.9327 6.2575-6.6835 14.5277-.8377 3.9569-3.3378 9.6569-5.5557 12.6667-3.8431 5.215-6.2108 11.9806-17.0976 48.8553-6.948 23.534-4.9445 28.3778 6.7354 16.2836zm39.23483-38.6871c.7984-.5387 5.2289-5.3905 9.8458-10.7817 10.6814-12.473 11.2797-16.2128 5.0445-31.5312-3.3693-8.2775-4.9935-10.7594-7.2516-11.0809-3.778-.5379-5.2414 2.328-7.0739 13.8529-.8069 5.0754-2.7182 15.3435-4.2471 22.818-1.529 7.4746-2.4214 14.5246-1.9831 15.6667.8486 2.2115 3.2816 2.665 5.6654 1.0562zm-800.78478-11.0426c0-1.5786-33.3737-34.6036-34.96896-34.6036-2.40659 0-6.36437 5.6196-6.36437 9.0366 0 6.1399 3.51723 9.3385 17.74832 16.1408 7.47176 3.5713 14.78501 7.4484 16.25168 8.6156 3.03936 2.4188 7.33333 2.8934 7.33333.8106zm5.92215-26.3583c1.0521-3.3149-1.4982-16.0664-3.96678-19.8339-2.1987-3.3556-5.83462-3.9988-8.35537-1.4781-.88.88-1.6 4.4591-1.6 7.9536 0 5.2054.74782 7.2053 4.13812 11.0667 4.51474 5.142 8.57736 6.0936 9.78403 2.2917zm74.46092-16.484c4.97735-1.4949 9.97021-3.6384 11.09523-4.7634 1.83845-1.8385 1.82819-2.2625-.10139-4.1884-3.24717-3.2411-39.81224-2.7022-43.50664.6412-3.32941 3.0131-3.2038 4.0509.8085 6.6798 9.5928 6.2855 15.23888 6.5759 31.7043 1.6308zm810.99881-9.48c.4213-1.6787.1327-4.7177-.6413-6.7535s-1.4334-9.5124-1.4653-16.6146c-.093-20.6576-3.346-32.0962-6.673-23.4637-1.1645 3.0214-1.0274 6.0387.6171 13.5884 1.1627 5.3375 2.1139 14.1484 2.1139 19.5798 0 10.1104 1.5576 16.7156 3.9416 16.7156.7375 0 1.6857-1.3734 2.107-3.052zm-924.46868-3.47c1.69774-.6538 5.5369-3.6021 8.53146-6.5517 4.20869-4.1456 6.87431-5.5774 11.74258-6.3074 7.71281-1.1566 10.95944-4.9727 8.88119-10.4389-2.05055-5.3934-7.63682-4.9129-36.73509 3.1596-5.86667 1.6276-11.41667 3.5654-12.33334 4.3064-4.00397 3.2365.13693 10.9489 7.94472 14.797 5.03907 2.4835 7.62598 2.7072 11.96848 1.035zm804.20445-11.763c.4492-2.8094 3.1713-9.0119 6.0491-13.7834 2.8778-4.7714 5.3616-9.858 5.5197-11.3035.9953-9.1052-1.6118-11.2948-13.4484-11.2948-10.3729 0-14.5714 2.5197-14.5714 8.7447 0 5.4223 8.0359 35.7826 9.7661 36.8971 2.282 1.47 5.7336-3.3114 6.6849-9.2601zm-721.56978.9689c4.64867-1.4572 10.78295-2.6572 13.63173-2.6667 2.84878-.01 9.05056-.7304 13.78172-1.6022 6.69789-1.2341 10.70654-1.2241 18.10858.045 12.10637 2.076 13.52031 1.1242 22.47162-15.1268 3.63537-6.6 8.94088-14.4 11.79-17.3334 6.14551-6.3271 8.5593-11.8003 6.71995-15.2371-1.08106-2.02-3.85747-2.5426-17.69578-3.331-16.1722-.9213-16.5847-.8731-28.05414 3.277-7.8359 2.8354-12.62021 5.4187-14.63775 7.9039-1.64842 2.0305-7.3003 5.923-12.55973 8.65-6.6724 3.4596-10.58901 6.5092-12.95866 10.09-1.86785 2.8225-6.15396 8.237-9.5247 12.0323-6.28207 7.0733-9.22173 12.5638-7.8849 14.7268 1.21723 1.9695 7.74134 1.4154 16.81206-1.428zm-27.23627-16.3506c10.26757-10.5146 9.97005-17.6776-.59333-14.2851-6.46687 2.0768-9.36654 4.6484-10.36443 9.1918-.95802 4.3618 1.22359 10.76 3.66888 10.76.96546 0 4.24546-2.55 7.28888-5.6667zm193.02172-2.9114c10.26667-1.0484 33.36666-2.2799 51.33333-2.7365 17.96667-.4567 40.89722-1.729 50.95679-2.8274 14.33816-1.5655 20.57429-1.6842 28.86149-.5495 7.56384 1.0356 16.58522 1.0421 31.70987.023 11.62618-.7835 21.85653-1.6725 22.73411-1.9755.87759-.3031 4.60378-.075 8.28044.5057 7.95839 1.258 42.92885-3.5954 43.7515-6.0721 1.05286-3.1699-17.80028-6.0321-37.62754-5.7126-34.49966.556-125.49585-1.2846-128.97893-2.6089-1.89386-.72-4.54835-2.9288-5.89889-4.9084-5.43353-7.9644-9.14053-10.8263-15.20018-11.735-3.30487-.4956-7.95381-2.0839-10.33098-3.5295-5.70699-3.4707-7.77136-3.3334-17.84603 1.1868-6.23088 2.7956-10.62942 6.1118-16.45762 12.408-9.60163 10.3725-14.69667 14.2979-25.54028 19.6771-8.90506 4.4175-10.38938 5.836-9.24041 8.8301.94086 2.4519 5.68614 2.4558 29.49333.025zm-51.14285-25.8981c9.88712-9.8871 8.24872-16.5229-2.7004-10.9371-5.77726 2.9474-9.49008 8.43-9.49008 14.0138 0 5.5008 4.83269 4.2811 12.19048-3.0767zm586.77378-9.4203c3.1363-1.4098 7.6324-3.2743 9.9914-4.1434 5.4649-2.0134 6.4009-5.1086 3.9276-12.9867-1.089-3.4687-2.3256-7.8808-2.7481-9.8048-1.2196-5.5547-5.1839-9.6502-8.364-8.6409-3.2395 1.0282-15.1045 24.4188-15.1045 29.777 0 3.3756 3.2823 8.362 5.5043 8.362.6 0 3.6571-1.1535 6.7933-2.5632zm-246.29761-.1035c.46736-.7562-.65282-1.3333-2.58798-1.3333-1.87661 0-3.41202.6-3.41202 1.3333s1.16459 1.3333 2.58797 1.3333c1.42339 0 2.9588-.6 3.41203-1.3333zm201.27058-2.8807c6.70992-3.0572 2.80275-13.3779-8.26344-21.8275-7.36521-5.6238-13.53315-6.0859-20.36431-1.5258-2.55356 1.7046-7.34284 4.1546-10.64284 5.4443-16.2171 6.3384-19.19208 11.7428-7.66667 13.9276 3.85.7298 11.5 2.2053 17 3.2789 12.45328 2.4309 25.4734 2.7364 29.93726.7025zm91.22606-11.0314c5.6921-2.9434 6.674-4.8261 8.8063-16.8842 2.7302-15.4387 2.5899-17.4288-1.996-28.3135-7.7622-18.423797-9.3858-20.878297-16.55223-25.022697-13.0785-7.5633-16.1017-6.4441-20.143 7.4576-1.8368 6.3183-1.8292 8.0408.077 17.507997 2.1656 10.7552 14.1681 38.4081 19.1703 44.1669 3.02873 3.4868 5.50833 3.7404 10.63763 1.0879zm-195.01905-17.5028c12.54602-6.1543 23.54556-12.0747 24.44343-13.1566.89788-1.0819 1.42978-3.0197 1.18201-4.3063-.40378-2.0967-2.93779-2.4079-24.44343-3.002-13.19612-.3646-29.69294-.5741-36.65961-.4657-6.96666.1084-18.32001.1952-25.22967.1929-19.61517-.01-21.78902.6593-31.34747 9.6007-5.98916 5.6026-11.15087 8.9722-18.03592 11.7741-11.13692 4.5322-11.73451 4.9636-9.69774 7.0003 1.05025 1.0503 10.78709 1.4499 31.91111 1.3097 21.02113-.1395 32.66209.3352 37.73303 1.5387 4.07388.9669 11.77803 1.51 17.33333 1.2221 9.37892-.4862 11.41674-1.2133 32.81093-11.7079zm-405.90085 7.7302c8.65114-1.8743 11.46156-1.9677 18.08026-.6006 15.90207 3.2845 26.35561 1.0292 25.41888-5.484-.61478-4.2746-10.33459-5.5681-19.82702-2.6386-4.91618 1.5173-12.22216 2.2647-22.70358 2.3225-15.40203.085-19.8786 1.2821-19.8786 5.3153 0 2.7266 3.23008 4.9366 6 4.1052 1.46667-.4403 7.27619-1.7992 12.91006-3.0198zm176.10246-.3146c5.69023-.6943 12.10332-.9108 14.25132-.4812 5.26262 1.0525 29.51698-1.8614 36.47414-4.382 3.07744-1.1149 8.29534-2.8122 11.59534-3.7718 8.90873-2.5905 41.69866-16.6201 43.95238-18.8057 1.71206-1.6603 1.66526-2.1805-.38024-4.2266-1.90982-1.9104-5.30799-2.4176-18.7478-2.7982-14.59346-.4132-17.02385-.1543-21.89997 2.3333-3.18183 1.6233-8.02144 2.7982-11.52612 2.7982-3.32272 0-10.61714 1.5802-16.20982 3.5115-8.91629 3.0791-11.58242 3.4233-21.65016 2.7952-9.60501-.5993-12.29485-.3015-16.45685 1.8218-3.01848 1.5399-7.74911 2.5434-12.0283 2.5515-3.87921.01-14.85311.8956-24.38645 1.974-9.53333 1.0783-23.33333 1.9728-30.66666 1.9877-11.89797.024-14.20882.4412-21.46584 3.8744-4.47288 2.1161-8.46737 4.72-8.87664 5.7865-1.64336 4.2826 1.34239 5.6424 13.94716 6.3521 17.89649 1.0077 71.95101.1586 84.07451-1.3207zm360.77341-10.0007c7.0744-10.5326 12.1033-22.5191 13.554-32.306197.736-4.9649 1.8987-11.394 2.5839-14.2868.6852-2.8929.9472-5.7429.5823-6.3334-1.2362-2.0001-6.7955-1.0875-10.3348 1.6965-4.7687 3.751-6.4915 7.2731-7.6491 15.637-1.1954 8.637897-3.6517 12.588997-10.5223 16.926297-6.6353 4.1887-9.85138 8.9338-8.64057 12.7487 1.59047 5.0113 10.12437 13.4205 13.17497 12.9827 1.586-.2276 4.6914-3.2531 7.2516-7.0648zm-436.68454-23.1305c31.29931-7.040497 37.48398-8.237297 42.47847-8.219897 9.65579.034 15.34781-4.6681 9.42013-7.7812-6.14333-3.2263-13.51009-3.0058-32.49526.9724-10.54427 2.2096-24.2714 4.7264-30.50473 5.593-17.7388 2.4662-40 9.962597-40 13.469797 0 2.8219 31.77326.3137 51.10139-4.0341zm404.56525-.5885c6.04318-5.5312 2.72532-9.551797-9.28489-11.251597-4.2797-.6057-5.14981-.2657-6.4127 2.506-2.97738 6.534697 3.2065 14.064597 10.03092 12.214397 1.46667-.3976 4.01667-1.9586 5.66667-3.4688zm-37.63278-15.642397c1.28175-1.0638 3.39067-4.4075 4.68649-7.4305 1.29582-3.0231 5.15312-8.6458 8.57178-12.4951 6.0387-6.7992 8.70784-11.54 8.70784-15.4664 0-4.5821-12.42319-.3412-24.50224 8.3641-20.16455 14.5326-30.07403 22.2306-30.69281 23.8431-.3804.9913.20681 2.7008 1.30491 3.7989 2.74459 2.7446 28.47339 2.2496 31.92403-.6141zm60.32727-1.0552c.2902-.8709-.4223-1.5834-1.5834-1.5834s-2.1111.95-2.1111 2.1111c0 2.3546 2.8704 1.9446 3.6945-.5277zm-462.36113-4.1417c4.76666-.6381 13.46666-2.5735 19.33333-4.3009 9.76604-2.8756 13.11527-3.1408 39.66689-3.1408 26.48165 0 29.0002-.1982 28.99999-2.2819-.00015-1.5799-1.74369-2.7053-5.66688-3.6579-3.11667-.7567-10.46667-2.8378-16.33334-4.6246-9.87207-3.0068-26.19322-5.1121-40.66666-5.2457-11.93462-.1102-23.49112 4.3551-45 17.3872-2.95062 1.7878-3.96307 5.6663-2 7.6616.55.559 3.7.6444 7 .1897 3.3-.4546 9.9-1.3487 14.66667-1.9867zm647.80906-4.2416c7.1112-2.479 7.5529-13.6388.6088-15.3817-2.8233-.7086-4.1693-.159-6.6369 2.7097-3.9418 4.5826-5.2213 9.5999-3.0999 12.1559 1.9653 2.3681 3.5573 2.4581 9.128.5161zm-93.1424-10.7894c0-3.3124-.4711-3.8626-3-3.5034-3.4687.4926-4.7883 5.468-2.2588 8.5159 2.3073 2.78 5.2588-.033 5.2588-5.0125zm31.4528-3.4107c7.4782-9.1499 8.8045-12.1813 11.8135-27 1.7496-8.6163 1.9593-12.2181.8747-15.0239-2.5702-6.6493-10.9131-7.5151-17.2677-1.792-5.2695 4.7458-7.0299 9.6161-6.7032 18.5446.1665 4.5492-.1802 12.5178-.7705 17.7079-1.128 9.9192.2346 15.2301 3.9074 15.2301 1.0339 0 4.6995-3.45 8.1458-7.6667zm-119.57613-10.2485c7.6927-7.6803 8.5557-9.0875 8.6667-14.132.089-4.0514-.5441-6.0201-2.2872-7.111-2.079-1.301-3.8601-.01-12.9511 9.3979-5.7973 5.9985-10.92732 12.4471-11.39998 14.3303-2.7071 10.786 5.86648 9.6004 17.97158-2.4852zm204.92513-13.0128c3.127-6.047 3.2748-17.4989.2339-18.1188-5.318-1.084-10.4593 16.4232-6.1024 20.7801 2.4417 2.4417 3.471 1.9749 5.8685-2.6613zm-169.64833-5.1688c1.9323-1.5199 3.5132-3.8859 3.5132-5.2577 0-2.5504-4.6431-6.6455-7.5348-6.6455-4.7467 0-7.7909 9.4743-4.1986 13.0667 2.271 2.2709 4.2015 1.9977 8.2202-1.1635zm312.48273 525.516207c-.3712-1.41931.01-2.84277.8445-3.16325.8471-.32488 1.6044.81685 1.7116 2.58056.2309 3.79926-1.6055 4.21789-2.5561.58269z" transform="translate(-85.382484 -.000673)"/></svg>