<svg 
  viewBox="0 0 326.90582 61.436249"
  xmlns="http://www.w3.org/2000/svg"
  fill="currentColor"
  aria-hidden="true"
>
  <path d="m172.4758 64.743539-1.34937-.238125q-1.03188-.15875-2.14313-.3175-1.03187-.15875-2.14312-.238125-1.11125 0-2.2225-.635-1.03188-.555625-1.42875-1.74625-.0794-.396875-.23813-.79375-.0794-.396875-.15875-.79375 0-.9525.39688-1.42875.39687-.396875.635-.79375.3175-.396875.635-.714375.15875-.15875.3175-.238125.15875-.07937.3175-.15875.39687-.238125.79375-.3175.39687-.15875.79375-.238125.15875-.07937.23812 0 .15875 0 .23813 0 .39687.07937.87312.15875.47625 0 .87313.15875l3.33375.47625q1.11125.15875 1.98437-.3175.3175-.15875.55563-.3175.3175-.15875.55562-.3175 1.74625-1.031875 3.01625-2.143125.9525-.873125 1.82563-1.74625.87312-.873125 1.5875-1.905.55562-.714375.71437-1.42875.15875-.79375.0794-1.5875l-.23813-.635q-.0794-.396875-.3175-.635-.23812-.238125-.47625-.555625-.47625-.396875-.9525-.873125-.39687-.47625-.87312-.79375-1.19063-.9525-2.38125-1.825625-1.11125-.873125-2.30188-1.74625-.0794-.15875-.47625-.3175-.71437-.47625-1.42875-1.031875-.635-.635-1.27-1.190625-.79375-.79375-1.74625-1.508125-.47625-.238125-.87312-.79375-.3175-.396875-.9525-.79375-.55563-.3175-1.03188-.714375-.47625-.47625-.9525-.873125l-1.03187-.9525q-.3175-.396875-.71438-.714375-.3175-.396875-.71437-.79375-.15875-.396875-.47625-.635-.23813-.238125-.47625-.555625-.0794-.15875-.23813-.3175-.15875-.238125-.23812-.47625-.47625-.9525-1.03188-1.905-.47625-.9525-.87312-1.984375-.23813-.635-.47625-1.190625-.15875-.635-.3175-1.190625-.0794-.635-.3175-1.11125-.15875-.555625-.3175-1.11125-.15875-.873125-.39688-1.666875-.15875-.873125-.3175-1.666875l-.15875-.635q-.0794-.873125 0-1.666875.15875-1.11125.47625-1.984375.3175-.9525 1.03188-1.508125.79375-.635 1.5875-1.2699999.79375-.635 1.66687-1.031875.15875 0 .23813-.079375.79375-.635 1.74625-.873125.9525-.3175 1.905-.555625 3.81-1.11125 7.85812-1.666875h.79375q.79375 0 1.50813 0 .71437 0 1.50812-.079375.9525 0 1.905.238125.9525.15875 1.82563.555625.635.3175 1.27.714375.635.3175 1.19062.714375.635.47625.79375 1.031875l.23813.555625q.39687.714375.39687 1.5081249.0794.714375-.0794 1.508125 0 .238125-.0794.555625 0 .238125 0 .47625-.23812 1.74625-1.66687 2.69875-.87313.79375-2.30188.635-.3175-.15875-.3175.15875 0 .3175-.39687.3175h-.47625q-.47625 0-.9525-.47625-.39688-.396875-.39688-.635 0-.3175.3175-.47625-.15875-.396875-.3175-.714375-.15875-.3175-.3175-.47625-.23812-.396875-.71437-.555625-.39688-.07938-.79375-.15875-.39688-.07938-.79375-.15875-.3175 0-.71438 0-.39687-.07938-.79375-.15875-.23812-.07937-.71437.07938-.23813.07938-.47625.15875-.23813 0-.55563-.07937-.23812 0-.55562 0-.23813 0-.55563.15875l-1.50812.238125q-1.27.238125-2.46063.9525-.23812.07938-.47625.15875-.23812.07937-.47625 0-.47625-.07938-.79375.238125-.0794.15875-.39687.238125-.23813 0-.39688.15875-.3175.3175-.3175.635.0794.15875.0794.47625l1.66687 4.841875q.47625 1.27 1.19063 2.38125.79375 1.031875 1.66687 2.06375 1.34938 1.5875 2.77813 2.69875l2.54 2.143125q.79375.714375 1.66687 1.349375.87313.635 1.66688 1.27 1.19062.873125 2.38125 1.825625 1.19062.873125 2.38125 1.825625.9525.79375 1.82562 1.5875.9525.714375 1.74625 1.5875.55563.635 1.11125 1.27.55563.635.9525 1.42875.55563.873125.9525 2.06375.47625 1.508125.39688 2.8575-.0794.15875-.0794.47625 0 .9525-.23812 1.825625-.15875.79375-.55563 1.666875-.39687.79375-.87312 1.666875-.39688.79375-.9525 1.5875-.79375 1.031875-1.66688 1.984375-.79375.873125-1.82562 1.74625-.55563.47625-1.11125 1.031875-.55563.47625-1.19063.873125-.39687.3175-.79375.555625-.39687.3175-.79375.635-.3175.15875-.635.396875-.3175.238125-.635.47625-.3175.3175-.79375.47625-.39687.238125-.79375.396875l-2.30187.9525q-.71438.238125-1.42875.3175-.71438.07937-1.50813 0zm57.30874 1.905q-.71438 0-1.27-.555625-.15875-.238125-.3175-.47625-.15875-.238125-.3175-.47625-.71438-1.666875-.71438-3.4925l-.23812-1.905q-.23813-1.11125-.39688-2.2225-.15875-1.11125-.55562-2.143125l-.47625-1.349375q0-.15875-.0794-.3175 0-.15875-.0794-.3175l-1.19063-4.206875q-.0794-.15875-.15875-.396875 0-.238125-.15875-.396875-.23812-.47625-.39687-.9525-.0794-.555625-.23813-1.11125-.0794-.396875-.15875-.714375-.0794-.396875-.23812-.79375-.15875-.47625-.3175-.555625-.15875-.15875-.71438 0-.39687.07937-.87312.15875-.39688 0-.79375.15875-.3175.07937-.79375.15875-.39688 0-.79375.07937l-1.11125.238125q-.39688.07937-.87313.238125-.39687.07937-.79375.07937l-1.42875.238125q-.635.15875-1.34937.3175-.71438.15875-1.34938.3175-1.905.47625-3.81.714375-.635.15875-.71437.555625-.0794 0-.0794.07937 0 0 0 0-.47625 1.27-1.11125 2.54-.55562 1.190625-1.19062 2.460625-.15875.3175-.3175.635-.0794.238125-.23813.555625-.0794.15875-.15875.396875-.0794.15875-.15875.3175-.47625.555625-.47625 1.349375-.0794.47625-.3175.9525-.23812.396875-.47625.79375-.0794.238125-.3175.238125-.3175.07937-.635.238125-.3175.15875-.71437.3175-.23813.07938-.47625 0-.15875-.07937-.39688-.15875-.15875-.15875-.3175-.15875-.87312-.07937-1.27-1.031875-.635-1.27-.87312-2.54-.0794-.3175 0-.555625.15875-.238125.23812-.47625.47625-.3175.55563-.714375v-.07937q0-1.031875.39687-1.905.47625-.9525.79375-1.825625.15875-.47625.39688-.9525.23812-.47625.47625-.9525.3175-.555625.47625-1.031875.23812-.555625.39687-1.11125.23813-.635 0-1.190625-.15875-.47625-.15875-.873125 0-.47625.0794-.9525 0-.873125.635-1.508125.3175-.396875.635-.635.39687-.3175.71437-.635.71438-.714375 1.11125-1.905.3175-1.031875.47625-2.06375.23813-1.11125.47625-2.143125.15875-1.031875.3175-1.984375.23813-1.031875.47625-1.984375.0794-.396875.15875-.714375.15875-.396875.23813-.714375.23812-.635.47625-1.190625.23812-.635.3175-1.27.15875-.3175 0-.555625-.0794-.396875 0-.714375.15875-.3175.23812-.635.23813-.555625.3175-1.11125.15875-.555625.39688-1.11125.39687-1.031875.635-1.666875.3175-.714375.55562-1.5875.15875-.47625.3175-.873125.23813-.47625.3175-.9525.23813-.714375.39688-1.42875.15875-.79375.15875-1.508125.15875-.635.3175-.873125.39687-.79375.9525-1.349375.635-.555625 1.19062-1.1112499.39688-.238125.79375-.3175.39688-.15875.79375.079375.3175.15875.39688.15875.71437-.079375 1.19062.3175.47625.3968749.79375.9524999.15875.15875.23813.396875.0794.238125.15875.396875.39687.635.39687 1.27 0 .3175.0794.714375.0794.3175.15875.714375.23812.47625.71437.47625.0794-.07937.15875 0 .0794.07938.0794.15875.39687.47625.23812 1.031875-.15875.635-.0794 1.27.15875.555625.3175 1.190625.3175.79375.635 1.5875.3175.79375.635 1.5875.39687.873125.79375 1.74625.39687.873125.71437 1.74625.39688 1.11125.79375 2.2225.47625 1.11125 1.03188 2.2225l.23812.873125q.0794.3175.15875.635.15875.3175.23813.635.15875.238125.23812.47625.15875.238125.3175.396875.39688.555625.47625 1.190625.23813.79375.71438 1.42875.15875.238125.47625.238125 1.19062-.15875 2.38125-.238125 1.19062-.15875 2.38125-.47625.87312-.238125 1.66687-.238125 1.50813 0 2.77813 1.031875 1.50812 1.190625 1.5875 3.01625 0 .396875.0794.635 0 .555625-.3175.873125-.0794.238125-.3175.47625-.15875.238125-.3175.47625-.15875.3175-.3175.47625l-.47625.396875q-.0794.15875-.23812.396875-.15875.15875-.39688.238125-.3175.07938-.635.238125-.3175.07937-.71437.07937-1.42875.15875-2.54-.07937h-1.27q-.15875 0-.47625.15875-.3175.15875-.3175.396875v.3175q.23812.714375.3175 1.508125.15875.714375.47625 1.349375 0 .3175.15875.635.39687.714375.635 1.508125.23812.714375.39687 1.508125 0 .15875.15875.635.23813.555625.39688 1.190625.15875.555625.23812 1.190625 0 .47625.23813.873125.3175.714375.47625 1.42875.15875.714375.23812 1.508125.0794.07937.0794.3175 0 .15875.0794.3175.39688.873125.55563 1.905.15875.9525.39687 1.905.15875.47625.15875.9525.0794.555625.0794 1.11125 0 .396875-.23813.873125-.23812.238125-.23812.238125-.47625.07937-.55563.555625l-.23812.47625q-.15875.3175-.47625.396875-.3175 0-.55563.238125-.3175.3175-.87312.3175-.3175 0-.79375 0-.39688 0-.79375.07937zm-19.12938-28.813125q.47625-.07937.9525-.15875.55563-.07937 1.19063-.15875.39687-.07937 1.03187-.15875.635-.07937 1.19063-.15875.55562-.15875 1.11125-.15875.55562-.07937 1.11125-.15875.47625-.15875.9525-.15875.47625-.07937.9525-.15875.71437-.15875.55562-.79375-.0794-.635-.3175-1.27-.15875-.714375-.71437-1.190625-.15875-.15875-.15875-.47625v-.238125q-.15875-.635-.39688-1.190625-.15875-.635-.39687-1.190625-.15875-.635-.39688-1.11125-.15875-.555625-.39687-1.11125l-.9525-2.8575q-.23813-.555625-.47625-1.11125-.15875-.555625-.3175-1.11125l-.23813-.3175h-.23812l-.15875.238125q-.39688 1.190625-.9525 2.38125-.47625 1.190625-.87313 2.54 0 .15875-.0794.396875-.0794.238125-.15875.47625-.3175.79375-.635 1.74625-.23813.9525-.39688 1.905-.0794.555625-.15875 1.11125-.0794.47625-.23812 1.031875l-.71438 3.095625q-.0794.07938.0794.238125.15875.07937.23812.07937zm51.03805 25.4q-1.50813-.15875-2.46063-1.11125-1.27-1.27-1.74625-3.095625-.3175-1.5875-.9525-3.095625l-1.19062-3.175q-.47625-1.27-.9525-2.460625-.47625-1.190625-.9525-2.38125l-.47625-1.349375q-.15875-.3175-.3175-.555625-.0794-.3175-.23813-.635-.15875-.396875-.39687-.79375-.15875-.47625-.39688-.873125-.3175-.873125-.635-1.74625-.3175-.873125-.71437-1.74625-.0794-.15875-.15875-.3175-.0794-.238125-.23813-.47625-.47625-1.11125-1.03187-2.2225-.47625-1.190625-1.03188-2.38125l-2.38125-5.476875q-.55562-1.349375-1.19062-2.69875-.55563-1.349375-1.11125-2.69875l-.47625-1.349375q-.0794-.238125-.15875-.47625-.0794-.238125-.23813-.47625 0-.15875-.0794-.3175-.0794-.15875-.0794-.238125-.15875-.635-.47625-1.190625-.23812-.635-.55562-1.190625l-.39688-.873125q-.0794-.238125-.23812-.47625-.0794-.238125-.23813-.47625.0794-.396875.0794-.79375 0-.396875.0794-.714375.23813-1.11125.3175-1.190625.0794-.15875 1.03188-.873125.0794-.07937.39687-.238125.55563-.396875 1.03188-.3175.3175 0 .55562-.07938.3175-.15875.635-.07938.47625 0 .635.07938.47625.15875.55563.15875.71437.15875.9525.635.0794.07938.15875.15875.0794.07937.15875.15875.87312.714375 1.03187 1.825625.15875.555625.3175 1.190625.23813.555625.47625 1.11125.39688.873125.79375 1.825625.39688.9525.71438 1.825625.47625 1.031875.87312 2.06375.47625 1.031875.9525 2.143125.39688.873125.79375 1.825625.39688.873125.71438 1.74625.3175.635.55562 1.349375.3175.635.55563 1.349375l.0794.3175q.635 1.27 1.11125 2.619375.55563 1.27 1.11125 2.619375.15875.238125.23813.47625.0794.238125.15875.47625.3175.3175.47625.79375.23812.47625.39687.873125.23813.635.47625 1.27.23813.555625.55563 1.190625.15875.555625.39687 1.031875.3175.396875.635.873125.15875.07937.3175-.07938.3175-.635.55563-1.190625.3175-.635.55562-1.27.23813-.714375.47625-1.349375.3175-.714375.55563-1.42875 0-.07937 0-.07937.0794 0 .0794-.07937.39688-1.190625.79375-2.38125.39688-1.190625.71438-2.38125l1.19062-4.445q.47625-1.825625.9525-3.65125.47625-1.825625 1.03188-3.571875.0794-.396875.15875-.714375.15875-.3175.23812-.635l1.66688-4.1275q.15875-.396875.3175-.635.15875-.3175.23812-.635.39688-.635.635-1.349375.23813-.714375.47625-1.42875.0794-.3175.15875-.555625.0794-.3175 0-.635-.0794-.238125.0794-.714375l.47625-1.11125q.47625-1.2699999 1.66687-1.7462499.39688-.238125.79375-.396875.39688-.3175.79375-.15875.55563.079375 1.03188.15875.55562.079375 1.03187.238125.635.238125.9525.79375.15875.15875.23813.3175.0794.15875.15875.3175l.23812.6349999q.15875.15875.23813.3175.15875.07938.15875.3175 0 .3175 0 .635.0794.238125.0794.635-.39687 1.666875-.9525 3.01625-.0794.3175-.23812.714375-.15875.3175-.3175.714375-.0794.07937-.0794.238125-.55562 1.031875-.9525 2.143125-.3175 1.031875-.79375 2.143125-.3175.79375-.635 1.5875-.23812.714375-.55562 1.508125-.3175.79375-.55563 1.5875-.15875.79375-.3175 1.5875-.0794.3175-.15875.635-.0794.238125-.15875.47625-.23812 1.031875-.47625 2.06375-.23812 1.031875-.55562 2.06375-.15875.79375-.39688 1.508125-.23812.714375-.39687 1.42875 0 .07937-.0794.15875 0 .07937 0 .15875-.3175.47625-.47625.9525-.0794.47625-.23812.9525-.15875.47625-.39688 1.031875-.15875.47625-.39687.9525-.55563 1.031875-.635 2.143125-.0794.15875-.15875.396875 0 .238125-.15875.47625l-.9525 2.38125q-.15875.3175-.23813.555625-.3175 1.190625-.635 2.460625-.3175 1.190625-.71437 2.38125-.3175 1.11125-.47625 2.301875-.15875 1.190625-.3175 2.301875-.15875 1.349375.0794 2.38125.0794.396875.0794.873125 0 .47625 0 .873125.0794.79375-.39688 1.42875-.15875.15875-.3175.635-.79375 1.508125-2.54 1.74625-.23812 0-.47625 0-.23812.07937-.55562.07937zm39.44938-.79375q-.79375-.07938-1.5875-.238125-.71438-.07937-1.42875-.396875l-1.98438-.714375q-1.03187-.396875-1.905-.873125-.87312-.555625-1.74625-1.11125-.39687-.396875-.79375-.714375-.39687-.396875-.79375-.714375-.635-.635-1.27-1.27-.635-.714375-1.19062-1.508125l-1.905-2.936875q-.71438-1.11125-1.27-2.301875-.55563-1.27-.9525-2.54-.87313-2.38125-.87313-4.683125v-1.27q0-1.984375.23813-3.889375.15875-1.5875.71437-2.8575.3175-.79375.55563-1.5875.23812-.79375.55562-1.508125l.23813-.555625q.15875-1.031875.71437-1.825625.55563-.873125.9525-1.666875.3175-.635.71438-1.11125.39687-.555625.71437-1.11125.15875-.238125.39688-.396875.23812-.238125.39687-.47625.15875-.15875.23813-.396875.15875-.3175.23812-.555625.15875-.238125.55563-.635.47625-.238125.87312-1.11125.15875-.3175.3175-.47625.47625-.396875.79375-.9525.39688-.555625.87313-1.031875.3175-.3175.3175-.873125 0-.396875 0-.714375.0794-.396875 0-.714375-.0794-.396875.23812-.714375.15875-.15875.23813-.396875.0794-.238125.15875-.47625.23812-.79375 1.27-1.349375.15875-.15875.39687-.15875.3175-.07938.55563-.15875.55562-.238125 1.27-.07937.3175.07937.55562.07937.23813-.07937.47625-.15875.3175-.15875.55563-.238125.3175-.07937.55562-.15875 1.11125-.396875 2.30188.07938 1.27.47625 1.82562 1.666875.15875.396875.3175.79375.15875.396875.23813.79375.15875.873125-.0794 1.508125-.15875.3175-.15875.396875-.0794.3175.15875.555625.15875.238125.39688.396875.87312.79375 1.66687 1.5875.79375.714375 1.50813 1.5875.635.635 1.03187 1.349375.47625.635.87313 1.42875.15875.396875.39687.873125.23813.396875.47625.79375.39688.714375.635 1.508125.3175.79375.635 1.5875v.07937q.15875.555625.23813 1.190625.15875.555625.47625 1.190625.23812.555625.39687 1.190625.15875.555625.3175 1.190625.15875.714375.3175 1.42875.23813.714375.3175 1.42875.0794.3175.15875.635.0794.238125.15875.555625.15875.714375.3175 1.42875.15875.714375.23813 1.42875l.23812.555625q.15875.47625.3175 1.27.23813 1.031875.23813 2.06375.0794 1.031875 0 2.143125 0 .555625-.0794.873125-.47625 1.666875-1.19062 3.413125-.3175.555625-.635 1.11125-.3175.47625-.635 1.031875l-.71438 1.11125q-.39687.714375-.87312 1.27-.79375 1.27-1.905 2.2225-1.11125.9525-2.38125 1.825625-2.77813 2.143125-6.50875 1.984375zm-.3175-7.858125q1.66687 0 2.8575-.9525.39687-.396875.79375-.714375.47625-.396875.79375-.79375 1.50812-1.666875 2.38125-3.4925l.23812-.79375q.15875-1.42875 0-2.8575l-.47625-2.619375q-.23812-1.031875-.39687-1.984375-.15875-1.031875-.47625-1.984375-.23813-.555625-.15875-.873125.0794-.396875 0-.79375-.0794-.396875-.23813-.79375-.23812-1.031875-.55562-2.06375-.3175-1.031875-.635-2.06375-.0794-.238125-.15875-.47625-.0794-.238125-.15875-.47625-.55563-1.11125-1.19063-2.143125-.635-1.031875-1.42875-1.905-.39687-.47625-.87312-.873125-.47625-.47625-.9525-.873125-.0794-.15875-.23813-.15875-.0794-.07938-.23812-.15875-.23813-.3175-.635.07937-.39688.396875-.87313.873125-.39687.47625-.79375.9525-.39687.555625-.87312 1.11125-.39688.555625-.79375 1.11125-.55563.714375-1.03188 1.42875-.47625.714375-.9525 1.42875-1.66687 2.69875-2.61937 5.953125-.15875.47625-.15875.714375-.0794.555625-.15875 1.11125 0 .555625 0 1.190625v.635q.0794.238125.0794.47625 0 .238125.0794.47625 0 .9525.47625 2.06375.635 1.5875 1.42875 3.095625.79375 1.508125 1.82562 2.8575.23813.3175.47625.635.3175.3175.55563.635.71437.79375 1.50812 1.42875.87313.635 1.74625 1.11125.9525.47625 1.82563.47625zm29.28931 7.064375q-.47625 0-.635-.07937-.3175-.15875-.55562-.238125-.23813-.07937-.47625-.15875-.23813-.15875-.47625-.3175-.15875-.238125-.3175-.47625-.15875-.15875-.3175-.15875-.47625 0-.47625-.47625-.0794-.47625-.15875-.9525-.0794-.47625-.15875-.9525-.0794-.714375-.15875-1.42875 0-.714375-.15875-1.349375v-.714375q0-.3175-.0794-.555625 0-.238125 0-.555625-.15875-.396875 0-.635.15875-1.42875 0-2.8575-.0794-.396875-.0794-.79375 0-.396875-.0794-.79375 0-.79375 0-1.5875 0-.873125-.15875-1.666875v-1.27q0-.635-.0794-1.190625 0-.555625-.0794-1.11125-.0794-.714375-.15875-1.42875 0-.714375-.0794-1.42875-.0794-.15875-.0794-.555625-.0794-.396875-.15875-.79375 0-.47625 0-.873125l-.23812-3.96875q-.0794-.635-.15875-1.190625 0-.635 0-1.190625-.0794-.9525-.15875-1.905-.0794-.9525-.15875-1.825625 0-.15875-.0794-.3175 0-.15875 0-.238125 0-.9525-.0794-1.905-.0794-.9525-.15875-1.984375l-.23813-2.2225q-.23812-1.27-.0794-2.778125 0-.714375.55562-1.190625.15875-.15875.23813-.15875.0794-.07938.15875-.15875.39687-.07938.39687-.555625 0-.15875.3175-.15875h.39688q.0794 0 .0794 0 .0794-.07938.15875-.07938.15875-.07937.23813-.15875.15875-.15875.23812-.15875.15875 0 .3175.07937.15875 0 .3175.07938.15875 0 .23813-.07938.39687-.07937.79375.07938.47625.07938.79375.238125.47625.07937.71437.635.23813.714375.39688 1.42875.23812.635.3175 1.349375v.635q.15875.555625.15875 1.190625 0 .555625 0 1.190625 0 .555625 0 1.11125.0794.47625.15875.9525 0 .238125 0 .47625 0 .238125.0794.47625 0 .47625 0 .9525.0794.47625.15875 1.031875.0794.873125.15875 1.825625.0794.9525.0794 1.905 0 .396875 0 .873125 0 .396875.0794.79375.0794.238125.0794.47625 0 .238125 0 .47625v1.5875q0 .47625.0794.79375.15875.555625.0794 1.11125 0 .47625.0794 1.031875l.23813 3.65125q.0794.79375.0794 1.666875.0794.79375.0794 1.666875 0 .3175 0 .714375 0 .3175.0794.635.0794.238125.0794.47625 0 .238125 0 .47625.0794.07937 0 .3175 0 .15875.0794.3175.15875.555625.15875 1.11125 0 .555625 0 1.190625 0 .3175 0 .714375.0794.3175.0794.714375.0794.396875.0794.873125 0 .47625 0 .873125.0794.396875.0794.873125 0 .396875.0794.79375.0794.15875.0794.3175 0 .873125.15875 1.74625.15875.873125.3175 1.74625.0794.238125.0794.555625 0 .238125 0 .47625 0 .238125-.15875.396875-.3175.238125-.47625.9525 0 .238125-.23812.396875-.55563.238125-.9525.635-.635.555625-1.50813.555625zm15.00179-6.35q-.39687 0-.635-.238125l-1.42875-.79375q-.0794-.07937-.15875-.07937 0-.07937-.0794-.15875-.15875-.15875-.47625-.714375-.23813-.635-.23813-.79375v-1.11125q0-.396875.3175-.714375.39688-.3175.55563-.873125.23812-.714375.79375-1.190625.55562-.47625 1.19062-.714375.3175-.15875.55563-.238125.3175-.07937.55562-.238125.47625-.238125.79375.07938v-.07938q.39688.15875.79375.3175.39688.07937.71438.238125.3175.07938.47625.396875.55562.635.87312 1.349375.39688.873125.3175 1.5875l-.23812 1.42875q-.0794.238125-.15875.47625-.0794.238125-.3175.396875l-.3175.3175q-.71438.873125-2.2225 1.11125-.3175.07937-.635.07937-.23813 0-.55563.15875-.15875.15875-.47625 0zm21.82818 6.6675q-.55563 0-1.34938-.396875-.39687-.238125-.635-.635-.0794-.238125-.39687 0-.23813.15875-.39688 0-.23812-.238125-.47625-.3175-.3175 0-.3175-.238125 0-.238125-.0794-.396875 0-.238125-.15875-.396875-.47625-.15875-.635-.79375-.0794-.238125-.15875-.396875-.0794-.238125-.23813-.47625-.15875-.3175-.15875-.555625-.0794-.238125-.15875-.396875 0-.238125-.15875-.47625-.0794-.555625-.3175-1.031875-.23812-.47625-.39687-1.031875-.15875-.3175-.15875-.873125 0-1.42875.47625-2.619375.39687-.714375.23812-1.42875-.0794-.3175 0-.635.15875-.3175.0794-.635-.0794-.3175-.15875-.555625 0-.238125 0-.555625-.0794-.15875-.0794-.396875 0-.47625 0-.9525 0-.555625-.15875-1.11125-.0794-.238125-.0794-.714375v-2.936875q-.0794-1.031875-.23813-2.06375-.15875-1.031875-.39687-2.06375 0-.238125-.0794-.47625 0-.238125 0-.47625 0-1.74625-.55562-3.413125v-.714375q.15875-.873125-.15875-1.349375-.0794-.3175-.0794-.873125v-.07938q0-.79375-.0794-1.5875 0-.79375.0794-1.5875.15875-1.42875 0-3.01625 0-.635 0-1.27 0-.635-.0794-1.190625v-.47625q.15875-.396875.15875-.714375 0-.3175 0-.635 0-.9525-.0794-1.825625 0-.9525-.15875-1.825625 0-.238125 0-.47625 0-.3175-.0794-.555625 0-.555625-.39688-.9525l-.55562-.47625q-.79375-.47625-1.03188-1.508125-.0794-.15875-.0794-.238125 0-.15875-.0794-.3175-.15875-.396875.15875-.714375.23813-.3174999.3175-.6349999 0-.238125.0794-.396875.15875-.238125.23812-.47625.0794-.238125.15875-.555625.15875-.238125.23813-.15875.55562 0 .79375-.15875.55562-.396875 1.19062-.15875.15875.079375.47625-.079375 0 0 0 0 .0794 0 .0794-.079375.39687-.396875.87312-.396875.47625-.079375 1.03188 0 .0794 0 .15875.079375.0794 0 .15875 0 .635.15875 1.19062.3175.635.079375 1.19063 0 .39687 0 .79375.079375.47625.079375.87312.079375.3175 0 .55563.079375.3175.079375.55562.15875.3175.079375.55563.238125.23812.079375.55562.079375.39688.079375.635.15875.3175.079375.635.238125 1.03188.555625 2.06375 1.031875.47625.238125.87313.6349999.55562.396875.9525.47625.0794 0 .15875.07938.0794 0 .15875 0 .0794.07937.15875.07937.0794 0 .15875.07938.39687.396875.9525.635.635.15875 1.03187.555625.15875.15875.47625.3175.635.238125 1.11125.714375.15875.15875.23813.15875.3175 0 .71437.396875l1.66688 1.74625q.3175.3175.47625.555625.39687.555625.87312 1.031875.47625.47625.9525.9525.15875.15875.3175.396875.23813.15875.3175.396875.0794.15875.23813.3175.15875.07938.23812.238125.87313.9525 1.66688 1.984375.87312 1.031875 1.5875 2.143125.39687.555625.71437 1.190625.3175.635.55563 1.27.23812.555625.47625 1.11125.3175.555625.55562 1.11125.23813.873125.55563 1.5875.3175 1.031875.635 1.984375.3175.9525.55562 2.06375l.23813 1.031875q0 .635 0 1.349375.0794.635.0794 1.349375 0 .3175-.0794.555625 0 .238125-.15875.555625-.15875.47625-.15875.873125-.0794.79375-.39688 1.508125-.23812.714375-.55562 1.349375-.71438 1.27-1.27 2.54-.15875.3175-.3175.635-.0794.238125-.23813.555625l-.47625.9525q-.55562 1.11125-1.34937 2.2225-.71438 1.031875-1.5875 1.984375-.3175.396875-.79375.79375-.39688.3175-.79375.714375-.79375.714375-1.5875 1.42875-.79375.635-1.66688 1.27-.79375.555625-1.66687 1.031875-.79375.47625-1.74625.79375-.47625.07937-.9525.47625-.47625.3175-1.03188.635-.47625.3175-1.03187.714375-.23813.07937-.47625.238125-.23813.07938-.55563.15875-.23812.07937-.55562.15875-.23813.07937-.47625.15875-.3175.07937-.635.238125-.23813.15875-.47625.396875-.55563.396875-1.19063.635-.635.3175-1.27.714375-.15875.07937-.55562.07937-.23813.07938-.47625 0-.23813 0-.47625 0v.07938zm3.175-8.89q.79375 0 1.34937-.3175.635-.238125 1.19063-.555625.55562-.3175 1.03187-.714375l.9525-.9525q.79375-.635 1.42875-1.349375.71438-.714375 1.50813-1.27.15875-.15875.15875-.15875.3175-.3175.55562-.555625.3175-.3175.55563-.635.15875-.15875.39687-.396875.23813-.238125.3175-.396875.3175-.555625.87313-.9525.39687-.238125.47625-.47625.15875-.396875.39687-.79375.3175-.396875.635-.714375.39688-.47625.79375-1.42875l.3175-.79375q.47625-1.11125.47625-2.06375.0794-.238125.0794-.714375.0794-1.190625-.15875-2.54-.0794-.396875-.15875-.79375-.0794-.396875-.0794-.714375-.0794-.3175-.15875-.555625 0-.3175-.15875-.555625-.15875-.3175-.23812-.635-.0794-.3175-.15875-.635 0-.555625-.15875-.9525-.15875-.47625-.3175-.9525-.23813-.47625-.47625-.9525-.23813-.555625-.39688-1.11125l-.0794-.3175q-.23813-.3175-.39688-.635-.0794-.396875-.23812-.714375-.3175-.714375-.635-1.42875-.23813-.714375-.635-1.349375-.39688-.714375-.87313-1.42875-.39687-.714375-1.03187-1.27-1.82563-1.984375-4.20688-3.571875-1.42875-1.031875-2.8575-1.349375-.55562-.15875-1.27-.238125-.71437-.15875-1.34937-.238125-.23813 0-.39688.15875-.39687.3175-.39687.79375 0 .555625-.0794 1.190625 0 .555625 0 1.190625.15875 1.11125-.0794 1.825625-.0794.3175-.15875.635 0 .3175.0794.714375.15875.47625-.0794.873125-.23813.47625 0 1.031875.3175.635.15875 1.5875-.23813.9525 0 1.905.0794.3175.0794.635.0794.3175 0 .714375 0 .873125.0794 1.74625.15875.873125.23812 1.74625 0 .15875.15875.47625v1.27q0 .15875-.0794.396875 0 .15875.0794.3175.15875.635.23813 1.349375.15875.635.3175 1.27 0 .15875.0794.396875.0794.15875.0794.396875 0 .555625.0794 1.11125.0794.555625.15875 1.190625.23813 2.2225.71438 4.524375.23812.9525.23812 1.984375 0 .238125 0 .555625 0 .238125.0794.47625.15875.555625.15875 1.11125 0 .555625 0 1.11125 0 .15875-.0794.396875 0 .238125.0794.396875.15875.396875.15875.79375 0 .3175 0 .714375 0 .3175.15875.79375 0 .396875.47625.396875zm38.73498 8.334375q-.47625 0-.635-.07938-.39688-.15875-.79375-.15875-.3175.07937-.71438.07937-.0794 0-.15875 0-.0794.07937-.15875.07937-.55562.07938-1.11125.07938-.47625 0-.9525-.15875-.0794-.07937-.15875-.07937-.55562.07937-.9525-.3175-.39687-.396875-.79375-.714375-.39687-.396875-.39687-.873125l-.23813-.635q-.23812-.555625-.15875-1.031875.0794-.15875 0-.3175 0-.15875 0-.3175-.0794-.15875-.0794-.3175 0-.238125-.0794-.396875-.15875-.714375-.23812-1.42875 0-.79375.0794-1.508125.0794-.47625.55563-1.5875.47625-1.190625.55562-1.42875.23813-.396875.23813-.635-.0794-.873125-.0794-1.74625.0794-.9525.0794-1.825625 0-.555625.23812-.873125.3175-.555625.0794-1.190625l-.23813-.873125q-.47625-.873125.0794-1.508125 0-.07937 0-.07937.0794-.07938.0794-.15875.15875-.15875.0794-.396875-.0794-.3175-.0794-.47625 0-.3175.0794-.635.15875-.396875.0794-.714375 0 0-.15875-.15875-.0794-.15875-.0794-.635.0794-.47625.0794-.555625v-2.2225q.0794-.396875.0794-.714375 0-.396875.0794-.79375.0794-.47625 0-.9525 0-.555625 0-1.11125-.0794-.396875-.15875-.873125 0-.47625 0-.9525-.0794-.15875-.0794-.396875 0-.238125 0-.396875-.0794-.396875-.15875-.79375 0-.396875 0-.79375 0-.15875-.3175-1.031875-.3175-.9525-.23813-1.5875.0794-.15875.0794-.396875 0-.238125-.15875-.396875-.15875-.07937-.15875-.3175v-.238125q.23812-.9525-.23813-1.905-.3175-.47625-.23812-.9525 0-.635-.55563-.9525-.39687-.396875-.71437-.9525-.3175-.555625-.39688-1.11125-.0794-.396875-.0794-.79375 0-.396875 0-.714375 0-.3175.0794-.396875.3175-.3175.3175-.714375 0-.47625.0794-.714375.0794-.07938.15875-.07938.0794 0 .15875-.07937.3175-.07938.3175-.555625-.15875-.3175-.15875-.555625-.0794-.3175.23812-.555625.15875-.3175.39688-.15875.55562.238125 1.27-.15875.3175-.15875.39687-.15875.23813 0 .23813 0 .0794-.07938.47625-.07938.47625.07938.87312-.3175.55563-.555625 1.34938-.555625h4.92125q1.82562.07937 3.65125 0 1.82562-.07938 3.57187-.07938.39688 0 .635 0 .3175-.07937.635-.15875.47625-.238125 1.11125-.238125h1.82563q.635 0 1.11125 0 .55562-.07938 1.11125-.15875.3175-.07938.55562-.07938.3175 0 .635 0 .3175 0 .635 0 .3175 0 .635-.07938.635-.07937 1.34938-.07937.71437-.07938 1.34937-.07938.3175 0 .55563 0 .3175-.07937.635-.15875.635-.15875 1.19062-.15875.635-.07938 1.19063-.1587499.635-.079375 1.19062-.15875.635-.079375 1.19063-.15875.71437 0 1.03187.15875.47625.3174999.87313.5556249.47625.238125.87312.635.3175.3175.39688.555625.0794.3175.15875.635.0794.3175.15875.714375v.555625q-.0794.396875-.15875.873125 0 .396875-.0794.873125-.15875.3175-.39687.555625l-1.42875 1.42875q-.79375.238125-1.5875.3175-.71438.07937-1.50813 0h-.55562q-.39688.07937-.79375.07937-.39688 0-.79375-.07937-.47625-.07937-.9525 0-.47625 0-.9525 0-.3175 0-.635.07937-.23813 0-.55563-.07937-.39687-.07937-.79375 0-.3175 0-.71437.07937-.3175 0-.71438.07938-.3175 0-.71437 0-1.03188.15875-2.2225.15875-1.11125 0-2.2225.15875-.71438-.07937-1.34938.07937-.635.07938-1.34937.15875-.635.07937-1.34938.07937-.71437 0-1.34937.15875-.79375 0-1.5875.238125-.71438.15875-1.50813.238125l-.55562.07937q-.55563 0-1.03188.15875-.47625.07937-1.03187.238125-.3175.07937-.635.15875-.3175 0-.71438.07938-.23812 0-.55562.15875-.23813.07938-.23813.47625l.23813.714375q.0794.15875-.0794.79375-.0794.635-.15875.9525 0 .238125.0794.47625.0794.238125.15875.47625.23812.635.23812 1.42875 0 .714375.15875 1.349375.0794.3175.0794.714375 0 .3175.0794.714375 0 .15875 0 .396875.0794.15875.0794.396875 0 .238125-.0794.3175-.23812.3175-.23812.714375 0 .396875 0 .79375.39687.79375.39687 1.5875 0 .79375 0 1.5875 0 .238125.39688.15875h.0794q.15875-.3175.3175-.47625.23813 0 .55563-.15875.23812-.15875.635-.15875.635.07938 1.19062 0 .55563-.15875 1.11125-.3175 3.73063-.9525 6.985-2.460625.87313-.396875 1.82563-.635.9525-.3175 1.905-.396875h.23812q.71438-.07937 1.42875-.15875.71438-.07938 1.42875-.07938.9525-.07937 1.82563-.238125.9525-.15875 1.905-.238125.55562-.15875 1.03187-.238125.47625-.15875 1.03188-.396875 1.03187-.396875 1.905-.396875.635.07938 1.19062.3175.55563.15875 1.11125.47625 1.19063.79375 1.19063 2.38125 0 .635-.15875 1.27-.0794.635-.0794 1.27 0 .15875-.15875.3175l-.23812.396875q-.0794.3175-.15875.635-.0794.3175-.39688.47625-.47625.396875-1.03187.873125-.47625.396875-1.11125.555625-.3175.07937-.635.15875-.23813.07937-.55563.07937-1.27 0-2.61937.15875-1.27.15875-2.61938.3175-1.03187.07937-2.06375.238125-.9525.15875-1.98437.15875-.9525 0-2.14313.396875-.79375.15875-1.66687.3175-.87313.15875-1.74625.238125-.635.07938-1.34938.238125-.635.07937-1.27.15875l-1.34937.238125q-.15875.07937-.47625.07937-.55563.15875-1.11125.238125-.55563.07938-1.11125.238125-.55563.07937-1.11125.238125-.47625.15875-1.03188.3175-.39687.07937-.635.3175-.23812.15875-.39687.47625-.0794.238125 0 .47625.0794.3175-.0794.635.0794.79375.0794 1.5875.0794.79375 0 1.5875.15875.635.0794 1.27 0 .635-.0794 1.27-.15875.9525.0794 1.5875.23813 1.031875-.15875 2.143125-.15875.47625 0 .635.15875.238125 0 .555625v.47625q-.0794.635.55563.635h.15875q.55562 0 1.11125.396875.39687.396875.9525.238125l2.2225-.238125q.47625-.07937.9525-.07937.47625-.07937.9525-.07937.15875-.07937.47625.07937.39687.238125.71437.07937.15875-.15875.39688-.238125.3175-.07937.47625-.238125.47625-.47625 1.19062-.3175.635.15875 1.03188-.07937.71437-.238125 1.34937-.15875.39688.07937.79375-.07937.39688-.15875.79375-.15875.15875 0 .23813.07937.0794 0 .15875-.07937.15875 0 .3175-.07937.15875-.07938.23812-.07938.55563-.238125 1.03188-.15875.39687 0 .39687 0 .3175-.07937.55563 0 .3175.07937.55562.238125.39688.07937.635.238125.3175.15875.635.238125.15875 0 .23813.07937.39687.3175.9525.555625.635.238125.71437.555625.15875.47625.15875.9525 0 .396875.0794.873125 0 .238125-.0794.47625 0 .238125-.0794.47625-.15875.3175-.39688.714375-.15875.396875-.47625.714375-.15875.15875-.3175.3175-.0794.15875-.23812.3175-.3175.3175-.71438.555625-.39687.238125-.87312.238125-.3175 0-.47625.07937-.3175.15875-.635.15875-.3175 0-.71438 0-.55562.07937-1.11125.15875-.47625 0-1.03187-.07937-.3175-.07937-.55563 0-.79375.238125-1.5875.07937-.79375 0-1.5875.07937-.71437 0-1.42875 0h-1.03187q-.23813 0-.39688.07937-.3175.15875-.79375.15875-.39687 0-.79375-.07937h-.79375q-.0794 0-.23812 0-.15875.07937-.3175 0-.23813-.07938-.47625-.07938-.15875.07938-.39688.15875-.15875 0-.3175 0-.0794.07937-.23812.07937-.79375-.07937-1.50813 0-.71437.15875-1.50812.3175zm58.6581 1.825625q-1.50813-.15875-2.46063-1.11125-1.27-1.27-1.74625-3.095625-.3175-1.5875-.9525-3.095625l-1.19062-3.175q-.47625-1.27-.9525-2.460625-.47625-1.190625-.9525-2.38125l-.47625-1.349375q-.15875-.3175-.3175-.555625-.0794-.3175-.23813-.635-.15875-.396875-.39687-.79375-.15875-.47625-.39688-.873125-.3175-.873125-.635-1.74625-.3175-.873125-.71437-1.74625-.0794-.15875-.15875-.3175-.0794-.238125-.23813-.47625-.47625-1.11125-1.03187-2.2225-.47625-1.190625-1.03188-2.38125l-2.38125-5.476875q-.55562-1.349375-1.19062-2.69875-.55563-1.349375-1.11125-2.69875l-.47625-1.349375q-.0794-.238125-.15875-.47625-.0794-.238125-.23813-.47625 0-.15875-.0794-.3175-.0794-.15875-.0794-.238125-.15875-.635-.47625-1.190625-.23812-.635-.55562-1.190625l-.39688-.873125q-.0794-.238125-.23812-.47625-.0794-.238125-.23813-.47625.0794-.396875.0794-.79375 0-.396875.0794-.714375.23813-1.11125.3175-1.190625.0794-.15875 1.03188-.873125.0794-.07937.39687-.238125.55563-.396875 1.03188-.3175.3175 0 .55562-.07938.3175-.15875.635-.07938.47625 0 .635.07938.47625.15875.55563.15875.71437.15875.9525.635.0794.07938.15875.15875.0794.07937.15875.15875.87312.714375 1.03187 1.825625.15875.555625.3175 1.190625.23813.555625.47625 1.11125.39688.873125.79375 1.825625.39688.9525.71438 1.825625.47625 1.031875.87312 2.06375.47625 1.031875.9525 2.143125.39688.873125.79375 1.825625.39688.873125.71438 1.74625.3175.635.55562 1.349375.3175.635.55563 1.349375l.0794.3175q.635 1.27 1.11125 2.619375.55563 1.27 1.11125 2.619375.15875.238125.23813.47625.0794.238125.15875.47625.3175.3175.47625.79375.23812.47625.39687.873125.23813.635.47625 1.27.23813.555625.55563 1.190625.15875.555625.39687 1.031875.3175.396875.635.873125.15875.07937.3175-.07938.3175-.635.55563-1.190625.3175-.635.55562-1.27.23813-.714375.47625-1.349375.3175-.714375.55563-1.42875 0-.07937 0-.07937.0794 0 .0794-.07937.39688-1.190625.79375-2.38125.39688-1.190625.71438-2.38125l1.19062-4.445q.47625-1.825625.9525-3.65125.47625-1.825625 1.03188-3.571875.0794-.396875.15875-.714375.15875-.3175.23812-.635l1.66688-4.1275q.15875-.396875.3175-.635.15875-.3175.23812-.635.39688-.635.635-1.349375.23813-.714375.47625-1.42875.0794-.3175.15875-.555625.0794-.3175 0-.635-.0794-.238125.0794-.714375l.47625-1.11125q.47625-1.2699999 1.66687-1.7462499.39688-.238125.79375-.396875.39688-.3175.79375-.15875.55563.079375 1.03188.15875.55562.079375 1.03187.238125.635.238125.9525.79375.15875.15875.23813.3175.0794.15875.15875.3175l.23812.6349999q.15875.15875.23813.3175.15875.07938.15875.3175 0 .3175 0 .635.0794.238125.0794.635-.39687 1.666875-.9525 3.01625-.0794.3175-.23812.714375-.15875.3175-.3175.714375-.0794.07937-.0794.238125-.55562 1.031875-.9525 2.143125-.3175 1.031875-.79375 2.143125-.3175.79375-.635 1.5875-.23812.714375-.55562 1.508125-.3175.79375-.55563 1.5875-.15875.79375-.3175 1.5875-.0794.3175-.15875.635-.0794.238125-.15875.47625-.23812 1.031875-.47625 2.06375-.23812 1.031875-.55562 2.06375-.15875.79375-.39688 1.508125-.23812.714375-.39687 1.42875 0 .07937-.0794.15875 0 .07937 0 .15875-.3175.47625-.47625.9525-.0794.47625-.23812.9525-.15875.47625-.39688 1.031875-.15875.47625-.39687.9525-.55563 1.031875-.635 2.143125-.0794.15875-.15875.396875 0 .238125-.15875.47625l-.9525 2.38125q-.15875.3175-.23813.555625-.3175 1.190625-.635 2.460625-.3175 1.190625-.71437 2.38125-.3175 1.11125-.47625 2.301875-.15875 1.190625-.3175 2.301875-.15875 1.349375.0794 2.38125.0794.396875.0794.873125 0 .47625 0 .873125.0794.79375-.39688 1.42875-.15875.15875-.3175.635-.79375 1.508125-2.54 1.74625-.23812 0-.47625 0-.23812.07937-.55562.07937z" stroke-width=".396875" transform="translate(-158.14862 -5.212289)"/>
</svg>