<?xml version="1.0" encoding="UTF-8" standalone="no"?>
<svg viewBox="0 0 616.23034 190.77698"
     xmlns="http://www.w3.org/2000/svg"
     fill="currentColor"
     class="logo-svg"
     aria-hidden="true">
  <g transform="translate(4.4086991,139.22522)">
    <path
       d="m 63.010716,-57.006426 q 3.083205,0 5.549769,2.877658 2.466564,2.877658 2.466564,5.755316 0,2.261017 -3.288752,3.905393 -3.288752,1.438829 -7.399692,2.877658 -4.11094,1.233282 -8.22188,2.466564 -3.905393,1.233282 -5.138675,2.672111 -1.849923,1.849923 -2.672111,4.316487 -0.822188,2.261017 -0.822188,4.727581 0,2.466564 0.822188,4.727581 0.822188,2.261017 2.05547,4.11094 1.438829,2.877658 3.288752,6.16641 2.05547,3.0832048 3.699846,7.1941448 1.644376,4.1109399 2.672111,9.2496148 1.233282,5.138675 1.233282,11.5106314 0,5.549769 -3.699846,11.305085 -3.699846,5.549769 -9.455162,9.866256 -4.522034,2.466564 -6.988598,4.11094 -2.466564,1.438829 -4.316487,2.261017 -1.849923,1.027735 -3.699846,1.233282 -1.644376,0.411094 -4.316486,0.411094 h -7.399692 q -1.027735,0 -2.672111,0.205547 -1.644376,0.205547 -3.288752,0.616641 -2.0554703,0.411094 -4.3164872,0.822188 H 5.8686508 1.3466169 q -5.755316,0 -5.755316,-5.549769 0,-1.438829 1.849923,-4.522034 1.84992299,-3.083205 4.7275809,-5.960863 2.672111,-2.877658 5.755316,-5.138675 3.0832052,-2.261017 5.3442222,-2.261017 0.616641,0 2.05547,1.027735 1.438829,0.822188 3.288752,1.849923 2.05547,1.027735 4.522034,2.05547 2.466564,0.822188 5.549768,0.822188 2.05547,0 3.699846,-1.233282 1.849923,-1.233282 3.083205,-2.877658 1.233282,-1.849923 1.849923,-3.699846 0.616641,-2.05547 0.616641,-3.494299 0,-3.494299 -2.672111,-8.4274264 -2.672111,-5.138675 -5.960863,-10.2773499 -3.288751,-5.3442219 -5.960862,-10.0718027 -2.672111,-4.727581 -2.672111,-7.810786 v -2.261017 q 0.822188,-3.494299 2.466564,-7.194145 1.644376,-3.699846 3.699845,-6.783051 2.05547,-3.083205 4.522034,-5.344222 2.466564,-2.466564 5.344222,-3.083205 1.438829,-0.822188 2.877658,-2.672111 1.644376,-1.849923 2.877658,-3.494299 1.644376,-1.644376 2.877658,-3.083205 1.438829,-1.644376 2.877658,-2.05547 1.644376,-1.438829 5.138675,-1.644376 3.494299,-0.205547 5.138675,-0.205547 z m 65.569364,0 q 4.31649,0 6.16641,2.466564 1.84992,2.466564 1.84992,6.783051 0,0.822188 -0.61664,3.699846 -0.61664,2.672111 -1.64438,6.16641 -0.82218,3.288752 -1.84992,6.783051 -1.02773,3.494299 -1.64437,5.549769 0,1.644376 -0.20555,3.494299 -0.20555,1.644376 -1.43883,4.522034 -1.64438,1.233282 -1.64438,4.11094 0,2.672111 0,3.9053928 L 126.9357,1.3689217 v 8.0163328 q 0,0.6166415 0,2.2610175 0.20555,1.438828 0.4111,3.083204 0.41109,1.438829 1.23328,2.672111 0.82219,1.027735 2.26102,1.027735 l 2.87765,-4.522034 q 1.23329,-1.027735 2.87766,-2.466563 1.64438,-1.6443765 3.28875,-3.0832054 1.84993,-1.644376 3.69985,-3.494299 1.23328,0 2.05547,1.027735 0.82219,1.027735 0.82219,2.261017 l -0.82219,1.6443759 q -0.82219,1.6443765 -1.64438,2.4665645 -1.43883,4.110939 -3.69984,7.194144 -2.26102,2.877658 -4.93313,5.755316 -2.67211,2.672111 -5.54977,5.549769 -2.67211,2.877658 -5.13867,6.577504 l -4.52204,6.371957 q 0,1.849923 -1.23328,3.699846 -1.02774,2.05547 -2.67211,3.083205 -1.43883,1.233282 -3.28875,1.027735 -1.64438,0 -2.67211,-2.261017 -1.23329,-3.699846 -1.23329,-7.194145 0,-3.699846 0.61664,-6.988598 0.61665,-3.494299 1.23329,-6.577504 0.61664,-3.083205 0.61664,-5.960863 V 15.14057 11.029631 q 0,-1.027735 -1.43883,-1.4388295 -0.82219,-0.205547 -1.43883,-0.205547 -0.61664,0 -3.08321,3.6998455 -2.46656,3.494299 -5.755311,8.22188 -3.083205,4.522034 -6.371957,9.249615 -3.288752,4.727581 -5.344222,6.783051 -0.616641,0.822188 -2.05547,2.466564 -1.233282,1.438829 -2.877658,2.877658 -1.438829,1.438829 -3.288752,2.466564 -1.849923,1.233282 -3.288752,1.233282 -2.877658,0 -4.727581,-2.05547 -1.849923,-2.05547 -2.877658,-4.727581 -1.027735,-2.877658 -1.644376,-5.549769 -0.411094,-2.877658 -0.411094,-4.11094 L 66.299338,15.14057 69.176996,-8.9084282 q 0,-0.616641 0.616641,-2.8776578 0.616641,-2.261017 1.644376,-4.933128 1.027735,-2.672111 2.261017,-5.138675 1.438829,-2.672111 2.877658,-4.316487 5.960863,-5.549769 11.510632,-13.566102 2.672111,-3.699846 5.138675,-5.344222 2.466564,-1.644376 4.933128,-2.466564 2.466567,-1.027735 4.933127,-1.438829 2.46656,-0.616641 5.54977,-2.261017 1.23328,0 3.0832,-1.233282 2.05547,-1.438829 3.69985,-2.672111 h 5.75532 3.4943 z m -26.31002,22.815717 q -3.699843,3.083205 -6.988595,7.194145 -3.288752,3.905393 -5.755316,8.016333 -2.466564,4.11094 -3.905393,7.810786 -1.438829,3.4942988 -1.438829,5.5497688 0,1.0277349 -0.205547,3.9053929 -0.205547,2.67211097 0.205547,5.7553159 0.411094,2.877658 1.438829,5.3442219 1.233282,2.2610175 4.11094,2.2610175 2.672111,0 6.16641,-4.7275814 3.699846,-4.727581 6.783054,-10.6884439 3.28875,-5.9608629 5.34422,-11.0995377 2.26102,-5.138675 2.26102,-6.16641 0,-0.822188 0.20554,-3.905393 0.20555,-3.288752 -0.41109,-6.16641 -0.4111,-3.083205 -2.26102,-4.316487 -1.64437,-1.438829 -5.54977,1.233282 z m 76.66914,2.466564 q 0.82219,3.494299 1.64438,5.960863 1.02773,2.261017 1.64437,4.522034 0.82219,2.05547 1.23329,4.522034 0.61664,2.261017 0.61664,5.549769 l 1.23328,9.0440677 q 0,3.08320497 0.20555,4.7275809 0.41109,1.438829 0.82218,2.672111 0.4111,1.027735 0.82219,3.083205 0.61664,2.0554704 1.43883,2.0554704 1.02774,0 2.05547,-2.0554704 1.02774,-2.05547 2.05547,-2.466564 1.23328,-1.233282 3.4943,-2.877658 2.26102,-1.6443759 2.26102,-3.90539291 0,-2.67211099 2.26101,-5.13867489 2.26102,-2.672111 2.26102,-4.1109398 0,-2.877658 -0.41109,-4.933128 -0.20555,-2.261017 -0.20555,-6.371957 0,-1.233282 -1.02774,-2.877658 -0.82218,-1.644376 -2.05547,-3.083205 -1.23328,-1.644376 -2.26101,-3.288752 -0.82219,-1.644376 -0.82219,-2.877658 0,-2.672111 0.41109,-3.699846 0.61664,-1.233282 1.43883,-1.849923 0.82219,-0.822188 1.84992,-1.849923 1.02774,-1.027735 1.84993,-3.905393 1.02773,-4.316487 3.69984,-6.577504 2.67211,-2.466564 6.57751,-5.549769 3.0832,1.438829 3.69984,2.877658 0.82219,1.233282 2.05547,2.877658 3.08321,3.905393 4.11094,6.577504 1.02774,2.672111 1.02774,6.577504 v 8.016333 q 0,1.027735 0.20555,1.644376 0.41109,0.616641 0.41109,3.494299 0,3.905393 -1.02774,7.194145 -1.02773,3.288752 -3.49429,7.605239 0,1.2332818 -0.4111,1.6443758 -0.20555,0.411094 -0.61664,0.616641 -0.20555,0.205547 -0.61664,0.616641 -0.20555,0.411094 -0.20555,1.644376 -1.23328,1.4388289 -2.05547,2.6721109 -0.82219,1.027735 -1.43883,2.26101699 -0.41109,1.23328198 -0.41109,2.05547001 0,0.616641 -1.02774,1.6443759 -0.82218,1.027735 -1.84992,2.466564 -1.02773,1.233282 -2.05547,2.672111 -0.82219,1.4388289 -0.82219,2.8776584 -2.26101,2.877657 -4.11094,4.72758 -1.64437,1.849923 -3.28875,3.699846 -1.64437,1.644376 -3.4943,3.699846 -1.84992,1.849923 -3.90539,4.522034 -2.87766,3.494299 -4.93313,7.194145 -1.84992,3.494299 -3.90539,6.577504 -2.05547,2.877658 -4.72758,4.727581 -2.67211,2.05547 -6.9886,2.05547 -1.43883,0 -2.46656,-0.411094 -1.02774,-0.411094 -1.02774,-3.083205 l 1.64438,-9.660709 q -1.23328,-2.672111 -1.43883,-4.316487 -0.20555,-1.849923 -0.20555,-3.083205 0,-4.316487 0.20555,-7.605239 0.41109,-3.288752 0.41109,-6.16641 0,-2.67211 -0.41109,-4.7275804 -0.4111,-2.05547 -1.02774,-3.905393 -0.61664,-1.849923 -1.02773,-3.4942989 -0.4111,-1.64437602 -0.4111,-3.905393 0,-0.616641 -1.02773,-3.6998459 -1.02774,-3.288752 -2.26102,-6.9885978 -1.02773,-3.905393 -2.05547,-7.194145 -1.02773,-3.494299 -1.02773,-4.316487 0,-2.672111 -3.08321,-4.11094 -3.0832,-1.644376 -5.96086,-1.644376 -1.64438,0 -2.46656,0.411094 -0.61665,0.411094 -1.43883,1.027735 -0.61664,0.616641 -1.84993,1.027735 -1.02773,0.411094 -3.4943,0.411094 -1.23328,0 -2.26101,-1.027735 -0.61664,-0.616641 -1.02774,-1.233282 0,-2.672111 1.84993,-5.344222 2.05547,-2.672111 3.90539,-2.672111 2.87766,-2.672111 5.54977,-5.138675 2.87766,-2.672111 6.37195,-4.11094 0.61665,-0.822188 2.05547,-2.466564 1.64438,-1.644376 3.4943,-3.083205 2.05547,-1.644376 3.9054,-2.877658 2.05547,-1.233282 3.69984,-1.233282 2.67211,0 3.9054,1.849923 1.23328,1.849923 1.43882,4.316487 0.4111,2.466564 0.4111,4.933128 0,2.466564 0.41109,3.699846 z m 85.9188,-23.432358 q 2.87766,0 6.9886,0.205547 4.31649,0.205547 7.19415,1.438829 3.0832,0 3.90539,2.466564 1.02773,2.466564 2.46656,5.549769 0.82219,0.822188 1.84993,2.261017 1.23328,1.438829 2.05547,3.083205 1.02773,1.438829 1.64437,3.083205 0.61664,1.644376 0.61664,2.877658 l -1.64437,18.293683 q 0,5.755316 -2.46657,12.7439137 -2.46656,6.9885979 -7.19414,12.5383668 -1.64438,1.6443765 -2.46657,3.6998455 -0.61664,1.849923 -1.43883,3.905393 -0.61664,2.05547 -1.64437,4.316487 -0.82219,2.05547 -2.46657,4.11094 -1.23328,1.438829 -2.87765,3.494299 -1.43883,2.05547 -3.28876,4.316487 -1.64437,2.05547 -3.69984,3.905393 -1.84992,1.644376 -3.90539,2.466564 -3.08321,1.644376 -5.13868,2.877658 -2.05547,1.233282 -3.69985,2.05547 -1.64437,0.822188 -3.49429,1.027735 -1.64438,0.411094 -3.69985,0.411094 -3.08321,0 -5.75532,-1.438829 -2.67211,-1.438829 -4.72758,-3.699846 -1.84992,-2.466564 -3.0832,-5.344222 -1.23328,-3.083205 -1.23328,-6.16641 V 15.551664 q 0,-1.233282 -0.82219,-2.261017 -0.82219,-1.027734 -0.82219,-5.7553154 -0.20555,-5.9608629 2.87766,-14.3882898 3.0832,-8.4274268 7.19414,-16.4437598 4.31649,-8.22188 8.42743,-14.38829 4.31649,-6.371957 6.5775,-7.810786 2.26102,-1.438829 3.69985,-3.083205 1.64438,-1.849923 3.0832,-3.288752 1.43883,-1.438829 2.87766,-2.261017 1.64438,-1.027735 4.11094,-1.027735 z m 1.02774,23.432358 q -3.28875,0 -6.78305,2.877658 -3.28876,2.672111 -6.16641,6.371957 -2.87766,3.494299 -5.13868,7.194145 -2.26102,3.494299 -3.0832,5.138675 l -2.05547,7.8107857 q -0.82219,2.87765797 -1.43883,5.5497689 -0.4111,2.672111 -0.4111,3.288752 V 10.41299 q 0.82219,0.616641 1.43883,2.466563 0.61664,1.849923 1.43883,3.699846 1.02774,1.849923 2.26102,3.288752 1.23328,1.438829 3.4943,1.438829 4.11094,-1.849923 7.60524,-3.699846 2.87765,-1.644376 5.54977,-3.494299 2.87765,-1.849922 3.90539,-3.699845 1.23328,-2.8776584 2.67211,-6.7830514 1.64438,-3.90539292 3.0832,-7.3996919 -0.41109,-1.6443759 0.82219,-3.2887519 1.43883,-1.644376 1.43883,-3.0832048 v -5.755316 q 0,-1.027735 -0.61664,-3.494299 -0.41109,-2.672111 -1.64438,-5.344222 -1.02773,-2.877658 -2.67211,-4.933128 -1.64437,-2.05547 -3.69984,-2.05547 z m 55.49749,-24.66564 q 3.4943,0 5.75532,2.672111 2.26101,2.466564 2.26101,5.344222 l -1.84992,5.755316 q 1.23328,1.233282 1.64438,3.494299 0.20554,1.027735 0.20554,2.261017 0,4.11094 -1.02773,7.605239 -0.82219,3.494299 -0.82219,7.810786 v 1.644376 q 0,1.027735 -0.20555,2.466564 -0.20554,1.233282 -0.61664,2.466564 -0.41109,1.438829 -0.82218,3.083205 v 2.2610168 q 0,2.261017 -0.82219,3.699846 -0.61664,1.4388289 -1.43883,3.6998459 -0.4111,1.64437599 -1.43883,3.494299 -0.82219,1.6443759 -0.82219,3.9053929 0,0.822188 0.4111,2.261017 0.41109,1.233282 1.23328,2.6721114 0.82219,1.233282 1.84992,2.261017 1.23328,0.822187 2.67211,0.822187 1.64438,0 2.87766,-1.027734 1.43883,-1.027735 2.26102,-2.261017 1.02773,-1.0277354 2.05547,-1.6443764 1.23328,-0.822188 2.67211,-0.822188 h 3.90539 q 1.23328,0 1.43883,1.233282 0.20555,1.2332824 0.20555,2.8776584 0,0.616641 -1.84993,2.466563 -1.84992,1.849923 -4.11094,4.11094 -2.26101,2.05547 -4.52203,4.11094 -2.26102,1.849923 -3.08321,2.466564 -0.61664,1.438829 -2.67211,4.933128 -2.05547,3.494299 -4.52203,7.194145 -2.46656,3.494299 -5.34422,6.16641 -2.67211,2.877658 -4.72758,2.877658 -1.43883,0 -3.28876,-1.027735 -1.64437,-0.822188 -3.0832,-2.466564 -1.43883,-1.438829 -2.46656,-3.083205 -0.82219,-1.644376 -0.82219,-3.288752 v -3.288752 q 0,-1.644376 -0.20555,-2.877658 -0.20555,-1.233282 -1.43883,-1.233282 v -3.905393 l 1.64438,-5.755316 V 9.3852545 q 0,-3.0832049 0.82219,-4.9331279 0.82218,-1.849923 0.82218,-4.72758092 V -2.1253773 q 0,-1.438829 0.82219,-4.1109399 1.02774,-2.672111 2.05547,-5.7553158 1.02774,-3.083205 1.84992,-5.960863 1.02774,-3.083205 1.02774,-5.344222 0,-1.644376 -1.43883,-3.494299 -1.23328,-2.05547 -4.31649,-2.05547 -1.23328,0 -2.26101,0.822188 -0.82219,0.822188 -5.13868,0.822188 -0.41109,-0.205547 -0.82219,-1.027735 -0.82218,-1.233282 -0.82218,-3.083205 v -3.288752 q 0,-1.849923 3.49429,-5.344222 3.69985,-3.699846 8.22188,-7.194145 4.72759,-3.699846 9.04407,-6.371957 4.31649,-2.877658 5.54977,-2.877658 z m 0.61664,-48.509095 q 0.82219,0 2.05547,-0.20554 1.43883,-0.4111 2.87766,-0.61664 1.43883,-0.4111 2.67211,-0.61664 1.43883,-0.4111 2.05547,-0.4111 2.87766,1.02774 3.69985,3.4943 0.82219,2.46656 2.46656,5.138675 0,1.644376 0.20555,3.288752 0.41109,1.644376 0.41109,3.083205 0,1.233282 -0.82219,3.083205 -0.82218,1.644376 -0.82218,4.316487 -0.4111,1.438829 -1.23329,3.494299 -0.61664,2.05547 -1.84992,3.905393 -1.02773,1.644376 -2.67211,2.877658 -1.43883,1.027735 -3.4943,0.616641 -2.87766,0 -6.37196,-1.849923 -3.28875,-2.05547 -4.93312,-5.138675 -1.43883,-1.233282 -1.02774,-3.699846 0.4111,-2.466564 0.4111,-4.316487 0,-5.549769 1.84992,-9.044068 1.84992,-3.494296 4.52203,-7.399696 z M 357.97072,7.1242376 q 0.82218,0 4.31648,2.05547 3.69985,1.8499234 7.60524,4.7275804 3.9054,2.877658 6.9886,5.960863 3.28875,3.083205 3.28875,5.549769 0,1.438829 -3.28875,5.138675 -3.28875,3.699846 -7.60524,7.605239 -4.11094,3.699846 -8.22188,6.577504 -3.90539,2.877658 -5.34422,2.877658 -2.26102,0 -4.52203,-2.466564 -2.05547,-2.261017 -3.69985,-5.138675 -1.64438,-2.877658 -2.87766,-5.549769 -1.02773,-2.877658 -1.02773,-3.494299 0,-0.822188 1.64437,-4.11094 1.64438,-3.288752 3.9054,-7.194145 2.46656,-3.905393 4.72758,-7.399691 2.46656,-3.6998464 4.11094,-5.1386754 z M 495.07068,-137.58085 h 5.75532 q 0.82219,0 1.64437,1.23328 0.82219,1.23329 1.23329,2.87766 0.61664,1.84992 1.02773,3.90539 v 5.75532 q 0,7.19415 -4.93313,12.12727 -4.93312,4.93313 -12.74391,4.93313 -0.41109,-0.41109 -1.02773,-0.82219 -1.23329,-0.82218 -2.26102,-0.82218 -1.43883,0 -2.87766,0.41109 -1.43883,0.41109 -2.26102,1.23328 -1.23328,1.23328 -2.87765,4.52204 -1.43883,3.288747 -2.87766,6.988593 -1.23328,3.494299 -2.26102,6.783051 -1.02773,3.083205 -1.23328,4.11094 l -1.02774,5.138675 q -1.23328,3.494299 -2.67211,6.16641 -1.23328,2.672111 -2.26101,5.549769 -0.82219,2.877658 -1.43883,6.16641 -0.61664,3.288752 -0.61664,7.810785 -0.82219,1.438829 -2.05547,5.960863 -1.02774,4.316487 -2.05547,9.249615 -0.82219,4.727581 -1.43883,8.838521 -0.61664,3.905393 -0.61664,4.522034 v 3.905393 q 0,1.027735 -0.4111,3.288752 -0.20555,2.261017 -0.61664,4.727581 -0.20555,2.466564 -0.61664,4.7275808 -0.20555,2.05547 -0.20555,2.672111 -0.61664,2.2610169 -0.82219,4.1109399 0,1.84992298 0.20555,3.083205 0.20555,1.6443759 0.61664,2.6721109 0,0.616641 -0.41109,2.261017 -0.20555,1.644376 -0.20555,3.4942994 0,1.849923 0.4111,3.288751 0.41109,1.233282 2.05547,1.233282 2.67211,0 5.34422,-1.849922 2.87766,-1.849923 5.13867,-4.1109404 2.26102,-2.466564 3.9054,-4.316487 1.84992,-1.849923 2.67211,-1.849923 1.23328,0 2.26101,1.233282 1.23329,1.233282 1.23329,2.877658 -2.05547,2.261017 -3.4943,4.5220344 -1.43883,2.055469 -2.46657,4.316486 -1.02773,2.05547 -1.02773,4.316487 -0.82219,2.261017 -2.46657,4.522034 -1.64437,2.05547 -3.69984,4.522034 -2.05547,2.466564 -4.11094,5.138675 -1.84993,2.466564 -3.28875,5.138675 0,0.616641 -1.02774,1.644376 -0.82219,0.822188 -2.05547,1.644376 -1.23328,0.822188 -2.67211,1.438829 -1.23328,0.822188 -1.84992,1.027735 -4.72758,3.494299 -8.01634,5.138675 -3.28875,1.644376 -3.28875,-0.616641 -2.05547,1.027735 -2.87766,-0.616641 -0.82218,-1.438829 -1.23328,-4.522034 -0.20555,-2.877658 0,-6.577504 0.20555,-3.905393 0.20555,-7.194145 0.20555,-3.288752 0,-5.549769 -0.20555,-2.261017 -1.23328,-2.261017 -1.64438,0 -4.31649,2.261017 -2.46656,2.05547 -5.34422,5.138675 -1.84993,1.644376 -4.31649,4.727581 -2.46656,3.083205 -5.13867,6.16641 -2.46657,2.877658 -4.93313,5.138675 -2.26102,2.261017 -3.4943,2.261017 -2.05547,0 -4.11094,-1.233282 -2.05547,-1.027735 -3.69985,-2.672111 -1.43883,-1.644376 -2.46656,-3.699846 -1.02774,-2.261017 -1.02774,-4.522034 v -3.288752 -9.249615 q 0,-0.616641 0.4111,-2.877658 0.41109,-2.466564 1.02773,-5.344222 0.61664,-3.288751 1.43883,-7.1941444 0,-0.822188 0.20555,-2.261017 0.41109,-1.438829 0.82219,-2.672111 0.61664,-1.4388289 1.23328,-3.08320492 V -1.5087363 q 0.41109,-2.05547 0.82219,-4.1109399 0.41109,-1.644376 0.61664,-3.288752 0.20555,-1.6443758 0.20555,-2.2610168 1.23328,-3.083205 1.64437,-5.755316 0.61664,-2.672111 2.46657,-5.755316 0.61664,-4.522034 3.0832,-7.810786 2.67211,-3.288752 6.16641,-5.960863 3.4943,-2.672111 6.9886,-4.933128 3.69984,-2.466564 6.5775,-5.344222 1.23328,0 2.26102,-0.205547 2.05547,-0.411094 3.4943,-2.05547 3.69984,-0.616641 5.75531,-1.027735 2.26102,-0.411094 3.4943,-1.233282 1.43883,-1.027735 1.84993,-2.466564 0.61664,-1.438829 0.82218,-4.316486 l 1.64438,-5.755316 1.84992,-12.538367 1.64438,-8.016333 q 0,-0.616641 0.41109,-2.877658 0.4111,-2.261017 1.02774,-4.727581 0.61664,-2.466564 1.23328,-4.522034 0.61664,-2.261017 0.82219,-2.672111 0.41109,-1.02773 0.41109,-1.64438 0,-0.61664 0,-1.84992 0,-0.82219 0.61664,-2.46656 0.61664,-1.64438 1.43883,-3.69985 0.82219,-2.05547 1.84992,-3.90539 1.02774,-2.05547 1.84993,-3.69985 2.05547,-2.67211 4.52203,-6.16641 2.46657,-3.4943 5.13868,-6.5775 2.67211,-3.08321 5.54977,-5.34422 2.87765,-2.46657 5.96086,-3.08321 h 1.64437 q 3.08321,0 3.69985,-0.82219 0.82219,-0.82218 2.05547,-0.82218 z m -60.01972,105.240064 q -4.11094,0 -8.01633,2.672111 -3.9054,2.672111 -6.9886,6.577504 -2.87766,3.905393 -4.72758,8.016333 -1.84992,4.11094 -1.84992,7.1941448 0,0.822188 -0.61665,4.5220339 -0.41109,3.49429898 -0.20554,7.1941449 0.41109,3.494299 2.26101,5.9608629 1.84993,2.4665645 6.57751,1.2332825 3.90539,-1.027735 7.39969,-5.1386754 3.69985,-4.1109399 6.16641,-9.6607089 2.67211,-5.5497689 3.90539,-11.5106317 1.43883,-6.16641 1.23328,-11.305085 0,-1.644376 -0.61664,-2.877658 -0.41109,-1.027735 -1.64437,-1.849923 -1.02774,-1.027735 -2.87766,-1.027735 z m 83.04114,-22.815717 q 4.31649,0 7.19415,1.644376 3.0832,1.438829 4.93313,4.11094 1.84992,2.672111 2.67211,6.16641 0.82218,3.494299 0.61664,7.399692 0,5.549769 -4.11094,9.044068 -4.11094,3.288752 -8.42743,5.755316 -3.90539,2.672111 -8.42743,4.727581 -4.31648,2.05547 -8.22188,4.522034 -3.69984,2.4665638 -6.37195,5.7553158 -2.46657,3.2887519 -2.67211,8.4274268 v 8.6329744 q -0.4111,3.494298 1.43883,6.988597 1.84992,3.288752 4.72758,3.288752 0.20554,0.205547 1.64437,-0.616641 1.43883,-0.822188 3.08321,-1.849923 1.84992,-1.233282 3.4943,-2.466564 1.84992,-1.233282 2.67211,-1.849923 3.0832,-1.438829 4.72758,-2.261016 1.84992,-1.027735 2.67211,-0.616641 1.43883,0 2.46656,0.411094 1.02774,0.411094 1.02774,3.083204 -0.4111,4.522034 -3.90539,8.838521 -3.4943,4.11094 -7.60524,7.810786 -4.11094,3.494299 -8.01634,6.16641 -3.90539,2.672111 -5.13867,3.905393 -3.4943,3.083205 -6.57751,3.288752 -2.87765,0.205547 -5.96086,0.205547 -1.84992,-0.205547 -3.90539,-1.644376 -1.84992,-1.438829 -3.4943,-3.288752 -1.43883,-2.05547 -2.26102,-4.11094 -0.82219,-2.05547 -0.61664,-3.494299 v -3.494299 q 0,-1.438829 -0.82219,-3.083205 -0.41109,-0.822188 -0.82218,-1.438829 l 0.61664,-4.11094 v -3.288752 q 0,-0.822188 0.41109,-4.316487 0.41109,-3.6998455 1.02774,-7.8107854 0.61664,-4.31648693 1.02773,-8.0163329 0.61664,-3.9053929 0.82219,-5.1386749 0.82219,-0.616641 0.82219,-1.233282 0,-0.616641 -0.20555,-1.2332818 -0.20555,-0.616641 -0.20555,-1.438829 0,-1.027735 0.82219,-2.261017 0,-2.466564 1.02774,-5.138675 0.61664,-1.438829 1.23328,-2.877658 l 2.87766,-6.783051 q 0.41109,-4.522034 4.31648,-9.249615 3.9054,-4.933128 9.04407,-8.838521 5.34422,-3.905393 10.89399,-6.16641 5.54977,-2.466564 9.45516,-2.05547 z m -9.24961,15.416025 q -1.02774,0 -2.05547,1.644376 -1.02774,1.438829 -2.05547,3.288752 -1.02774,2.261017 -2.05547,4.727581 -0.20555,1.027735 -0.61664,2.466564 -0.4111,1.233282 -0.61664,2.466564 -0.20555,1.027735 0.20554,1.849923 0.4111,0.616641 1.64438,0.616641 1.02773,0.205547 3.0832,-0.411094 2.05547,-0.616641 4.11094,-1.849923 2.26102,-1.233282 3.9054,-2.877658 1.84992,-1.849923 2.05547,-3.905393 v -3.494299 q 0,-1.027735 -0.61664,-1.849923 -0.61664,-0.822188 -1.43883,-1.233282 -0.82219,-0.616641 -2.05547,-1.027735 z m 58.3754,8.016333 q 0.82219,3.494299 1.64437,5.960863 1.02774,2.261017 1.64438,4.522034 0.82219,2.05547 1.23328,4.522034 0.61664,2.261017 0.61664,5.549769 l 1.23328,9.0440677 q 0,3.08320497 0.20555,4.7275809 0.4111,1.438829 0.82219,2.672111 0.41109,1.027735 0.82219,3.083205 0.61664,2.0554704 1.43883,2.0554704 1.02773,0 2.05547,-2.0554704 1.02773,-2.05547 2.05547,-2.466564 1.23328,-1.233282 3.4943,-2.877658 2.26101,-1.6443759 2.26101,-3.90539291 0,-2.67211099 2.26102,-5.13867489 2.26102,-2.672111 2.26102,-4.1109398 0,-2.877658 -0.4111,-4.933128 -0.20554,-2.261017 -0.20554,-6.371957 0,-1.233282 -1.02774,-2.877658 -0.82219,-1.644376 -2.05547,-3.083205 -1.23328,-1.644376 -2.26102,-3.288752 -0.82218,-1.644376 -0.82218,-2.877658 0,-2.672111 0.41109,-3.699846 0.61664,-1.233282 1.43883,-1.849923 0.82219,-0.822188 1.84992,-1.849923 1.02774,-1.027735 1.84992,-3.905393 1.02774,-4.316487 3.69985,-6.577504 2.67211,-2.466564 6.5775,-5.549769 3.08321,1.438829 3.69985,2.877658 0.82219,1.233282 2.05547,2.877658 3.08321,3.905393 4.11094,6.577504 1.02774,2.672111 1.02774,6.577504 v 8.016333 q 0,1.027735 0.20554,1.644376 0.4111,0.616641 0.4111,3.494299 0,3.905393 -1.02774,7.194145 -1.02773,3.288752 -3.4943,7.605239 0,1.2332818 -0.41109,1.6443758 -0.20555,0.411094 -0.61664,0.616641 -0.20555,0.205547 -0.61664,0.616641 -0.20555,0.411094 -0.20555,1.644376 -1.23328,1.4388289 -2.05547,2.6721109 -0.82219,1.027735 -1.43883,2.26101699 -0.41109,1.23328198 -0.41109,2.05547001 0,0.616641 -1.02774,1.6443759 -0.82219,1.027735 -1.84992,2.466564 -1.02774,1.233282 -2.05547,2.672111 -0.82219,1.4388289 -0.82219,2.8776584 -2.26102,2.877657 -4.11094,4.72758 -1.64438,1.849923 -3.28875,3.699846 -1.64438,1.644376 -3.4943,3.699846 -1.84992,1.849923 -3.90539,4.522034 -2.87766,3.494299 -4.93313,7.194145 -1.84992,3.494299 -3.90539,6.577504 -2.05547,2.877658 -4.72759,4.727581 -2.67211,2.05547 -6.98859,2.05547 -1.43883,0 -2.46657,-0.411094 -1.02773,-0.411094 -1.02773,-3.083205 l 1.64437,-9.660709 q -1.23328,-2.672111 -1.43883,-4.316487 -0.20554,-1.849923 -0.20554,-3.083205 0,-4.316487 0.20554,-7.605239 0.4111,-3.288752 0.4111,-6.16641 0,-2.67211 -0.4111,-4.7275804 -0.41109,-2.05547 -1.02773,-3.905393 -0.61664,-1.849923 -1.02774,-3.4942989 -0.41109,-1.64437602 -0.41109,-3.905393 0,-0.616641 -1.02773,-3.6998459 -1.02774,-3.288752 -2.26102,-6.9885978 -1.02774,-3.905393 -2.05547,-7.194145 -1.02774,-3.494299 -1.02774,-4.316487 0,-2.672111 -3.0832,-4.11094 -3.08321,-1.644376 -5.96086,-1.644376 -1.64438,0 -2.46657,0.411094 -0.61664,0.411094 -1.43883,1.027735 -0.61664,0.616641 -1.84992,1.027735 -1.02773,0.411094 -3.4943,0.411094 -1.23328,0 -2.26102,-1.027735 -0.61664,-0.616641 -1.02773,-1.233282 0,-2.672111 1.84992,-5.344222 2.05547,-2.672111 3.9054,-2.672111 2.87765,-2.672111 5.54976,-5.138675 2.87766,-2.672111 6.37196,-4.11094 0.61664,-0.822188 2.05547,-2.466564 1.64438,-1.644376 3.4943,-3.083205 2.05547,-1.644376 3.90539,-2.877658 2.05547,-1.233282 3.69985,-1.233282 2.67211,0 3.90539,1.849923 1.23328,1.849923 1.43883,4.316487 0.41109,2.466564 0.41109,4.933128 0,2.466564 0.4111,3.699846 z"
    />
  </g>
</svg>
