<svg
   version="1.1"
   viewBox="0 0 1024 1024"
   xmlns="http://www.w3.org/2000/svg"
   xmlns:svg="http://www.w3.org/2000/svg">
  <g
     id="g1">
    <path
       style="fill:#000000;stroke:none"
       d="m 585.55913,973.37252 c 0.01,-0.4562 1.3694,-9.6044 3.0208,-20.3294 7.90709,-51.3527 3.44588,-86.44187 -15.6074,-122.75841 -20.49216,-39.05914 -53.10401,-69.49735 -116.68165,-108.90464 -7.5625,-4.68746 -13.75,-8.86028 -13.75,-9.27294 0,-1.09829 14.04287,-4.75548 25,-6.51077 10.6305,-1.70296 33.71155,-3.53113 44.75,-3.5445 3.9875,-0.005 7.24714,-0.34628 7.24365,-0.75878 -0.003,-0.4125 -4.99227,-2.71876 -11.08617,-5.12502 -12.36844,-4.88384 -18.522,-8.98685 -21.22477,-14.15202 -2.43182,-4.64739 -1.81063,-18.10834 1.19859,-25.97296 4.64914,-12.15056 17.29399,-23.51523 31.25037,-28.08655 9.73189,-3.18762 27.67772,-3.42186 38.36833,-0.5008 19.69749,5.38206 36.82217,14.60006 74.5,40.10245 22.89303,15.49524 34.85672,22.62893 50.25732,29.96734 18.70133,8.91123 28.57715,11.47308 44.33272,11.5002 12.91169,0.0222 22.68557,-2.42889 34.76014,-8.71718 7.56011,-3.93722 11.10442,-6.68752 20.39982,-15.82979 6.1875,-6.08556 11.24659,-11.71064 11.24242,-12.50017 -0.005,-0.94736 -2.81042,-2.20012 -8.25,-3.68404 -13.13345,-3.58282 -24.10531,-9.60861 -32.30837,-17.7439 -9.84539,-9.76403 -11.83776,-14.28896 -11.89167,-27.00756 -0.038,-8.97454 0.23395,-10.52376 2.65231,-15.1076 3.3827,-6.41169 11.12683,-13.44076 19.17113,-17.40096 3.4077,-1.6776 11.27256,-4.29842 17.47747,-5.82403 l 11.28166,-2.77383 -19.30671,-16.94679 C 721.78176,521.09474 689.93388,492.238 685.88902,487.141 c -5.9894,-7.54735 -13.76003,-23.54658 -16.95368,-34.90655 -2.24191,-7.97455 -2.55989,-10.76921 -2.21876,-19.5 0.4388,-11.23072 2.9266,-18.44731 8.96023,-25.99179 1.67164,-2.09023 2.81297,-4.39036 2.53628,-5.1114 -0.27669,-0.72104 -4.10122,-5.78423 -8.49896,-11.25154 -29.28744,-36.41039 -66.26044,-57.62114 -114.82265,-65.8717 -18.22888,-3.09702 -46.49715,-5.46494 -65.24061,-5.46494 h -14.76944 l -12.47645,12.75 c -21.36857,21.83709 -32.80648,36.60164 -55.61178,71.78615 -29.45268,45.44023 -38.24797,56.21754 -83.21297,101.96506 -27.14112,27.61345 -37.13333,39.12191 -48.29835,55.62731 -5.31849,7.86238 -17.741,30.44739 -17.741,32.25439 0,0.29896 4.1625,-2.17046 9.25,-5.4876 14.10892,-9.19928 41.73837,-22.24027 43.46387,-20.51477 0.16896,0.16896 -1.75076,4.65159 -4.26604,9.96141 -6.12125,12.92208 -14.66063,39.16402 -17.94897,55.15805 -6.75195,32.84065 -2.84173,65.82866 10.71378,90.38521 4.8212,8.73386 4.358,9.2323 8.25695,-8.88521 2.83973,-13.19553 8.64908,-31.79644 12.80494,-41 2.06732,-4.57828 2.60397,-5.16483 3.20222,-3.5 13.91677,38.72759 33.83686,72.51057 61.91312,105 13.95666,16.15044 49.94978,51.49369 51.1838,50.25966 0.28039,-0.28039 -0.81222,-9.67852 -2.42802,-20.88473 -3.74585,-25.97901 -4.21749,-29.87493 -3.61665,-29.87493 1.54856,0 17.8476,14.34971 29.51966,25.98918 38.53684,38.42921 69.34388,88.5377 77.52448,126.09566 2.12709,9.7657 2.1315,24.9795 0.009,32.2794 l -1.64405,5.6553 -2.71922,-1.4285 c -1.49522,-0.7857 -12.84387,-10.5214 -25.21887,-21.6348 -30.08133,-27.0147 -76.4985,-65.79108 -77.5256,-64.76397 -0.20688,0.20687 0.72696,5.76075 2.0752,12.34193 3.00523,14.66954 5.28855,41.02764 3.69236,42.62384 -0.78056,0.7806 -5.67152,-2.6931 -17.41369,-12.3675 -8.98055,-7.3992 -25.10327,-20.4195 -35.82827,-28.93411 -92.43012,-73.38053 -135.59844,-100.20957 -185.64914,-115.38062 -11.53461,-3.49629 -35.86723,-8.47581 -41.41743,-8.47581 -1.61339,0 -2.93343,-0.38058 -2.93343,-0.84574 0,-0.46516 2.73525,-4.62766 6.07833,-9.25 14.56677,-20.14088 25.5175,-39.33262 33.80439,-59.24399 4.17036,-10.02035 11.45997,-31.65091 10.86652,-32.24437 -0.18768,-0.18767 -10.41684,3.69197 -22.73146,8.62144 -12.31463,4.92946 -22.75643,8.96266 -23.20401,8.96266 -1.59222,0 -0.75049,-3.32665 4.15147,-16.40724 12.71754,-33.93607 30.64981,-68.93207 50.56491,-98.68079 l 11.17812,-16.69763 -3.60413,-0.59616 c -1.98228,-0.32789 -13.18035,-0.60112 -24.88461,-0.60717 l -21.28047,-0.011 8.91219,-10.25 c 34.9501,-40.19643 55.81762,-72.51236 64.06398,-99.21097 2.86672,-9.28137 2.6376,-13.71879 -1.4148,-27.40083 -7.52034,-25.39074 -10.45328,-45.15957 -10.48091,-70.64433 -0.0345,-31.80189 4.55772,-59.40534 17.96622,-107.99387 13.42828,-48.66021 46.41423,-148.464993 54.03752,-163.500003 8.31476,-16.39875 17.88576,-22.02907 32.34475,-19.0274 12.86478,2.67072 24.3762,14.15315 44.13855,44.0274 31.11037,47.028763 52.18489,94.969993 75.49974,171.750003 l 4.32712,14.25 30.08329,-0.008 30.08329,-0.008 2.22961,-3.90499 c 3.14561,-5.50929 16.28004,-22.15881 49.76207,-63.07961 32.42305,-39.62654 50.75346,-62.8539 70.631,-89.5 12.80195,-17.16117 18.22764,-24.692543 34.94,-48.500003 4.05394,-5.775 9.11064,-12.39087 11.23712,-14.70194 4.78454,-5.19927 12.7538,-9.29746 18.08082,-9.29746 8.07425,0 16.881,6.71182 21.60143,16.46292 11.19106,23.11764 11.37273,98.073563 0.37577,155.037083 -4.93637,25.5701 -9.30624,41.8721 -34.08717,127.16383 l -1.50031,5.16382 10.5506,12.06084 c 22.51872,25.7421 27.74096,34.38174 28.46459,47.09172 0.35752,6.27955 -0.50232,12.1216 -5.21336,35.42136 -3.10282,15.34587 -5.83979,28.22242 -6.08214,28.61457 -0.63829,1.03276 29.79034,26.19541 87.00997,71.95201 37.29129,29.82058 44.70278,36.16176 50.73416,43.40756 8.62814,10.36541 11.33391,19.88533 8.7419,30.75724 -2.17804,9.13556 -23.71623,67.58012 -27.69558,75.15284 -5.91009,11.24693 -15.58173,20.23977 -29.04718,27.00854 -6.01633,3.02427 -13.59255,7.4936 -16.83604,9.93185 -18.04516,13.56517 -37.73935,21.71333 -59.71962,24.70806 -11.11084,1.5138 -32.22263,1.31909 -46.21565,-0.42625 -6.57909,-0.82061 -12.26783,-1.49561 -12.64162,-1.5 -0.3738,-0.004 2.14629,4.15451 5.60021,9.24201 13.62291,20.0661 24.71713,43.3416 29.71134,62.33397 1.97124,7.49636 2.34643,11.38404 2.35632,24.41603 0.0183,24.06931 1.64427,23.851 -19.48499,2.61605 l -18.02589,-18.11605 0.76132,6 c 1.38651,10.92717 0.76392,35.32704 -1.13507,44.48429 -3.20034,15.43255 -11.83401,33.85875 -18.03338,38.48725 -2.44323,1.8241 -2.88402,1.8637 -5.36606,0.4815 -1.48729,-0.8283 -4.11982,-3.6123 -5.85006,-6.1866 l -3.1459,-4.6807 -4.06254,8.4665 c -2.23439,4.6566 -5.4467,10.4784 -7.13845,12.9373 -10.68667,15.5325 -30.24135,29.6218 -45.75722,32.9684 -1.7875,0.3855 -3.24179,0.3277 -3.23175,-0.1285 z m -240.13608,-568.68061 6.03453,-6.85116 -4.96128,-9.8865 c -8.76299,-17.4623 -12.7084,-32.03416 -13.66117,-50.4558 -0.57185,-11.0566 0.27487,-24.50951 1.53534,-24.39385 0.36873,0.0338 4.85852,5.09633 9.97731,11.25 5.1188,6.15366 11.08698,13.21348 13.26262,15.68848 l 3.95572,4.5 -2.48412,-7.34137 c -9.24483,-27.32137 -11.20594,-66.99925 -4.85156,-98.15863 0.84122,-4.125 1.85182,-8.09149 2.24577,-8.81443 0.46278,-0.84922 5.99834,6.66379 15.64048,21.22767 l 14.92419,22.54211 0.33765,-4.72767 c 0.18571,-2.60023 -0.17489,-11.02768 -0.80135,-18.72768 -3.48335,-42.81551 -11.10977,-73.2501 -25.18369,-100.5 -6.01848,-11.65298 -16.15041,-27 -17.8251,-27 -1.16433,0 -10.98464,17.46072 -16.52249,29.37732 -21.29204,45.81726 -34.50502,103.97959 -34.50502,151.88794 0,49.75512 13.02141,83.93667 39.40364,103.43563 3.247,2.39984 6.25022,4.2364 6.67382,4.08123 0.4236,-0.15517 3.48571,-3.36514 6.80471,-7.13329 z M 680.25372,281.04308 c 9.64618,-24.94991 12.28712,-42.75324 12.90554,-87 l 0.45424,-32.5 -9.62445,19.5 c -17.82738,36.11987 -41.18127,87.48523 -50.32459,110.68567 l -2.04368,5.18566 6.21005,5.29717 c 3.41553,2.91344 10.0002,8.63122 14.6326,12.70619 l 8.42256,7.40903 7.46079,-14.89186 c 4.10343,-8.19052 9.46156,-20.06686 11.90694,-26.39186 z m -63.20704,229.87454 c -4.37994,-4.056 -15.60738,-14.69082 -24.94987,-23.63294 l -16.98635,-16.25841 -1.36239,6.75841 c -1.60232,7.94855 -3.85572,11.94575 -9.41881,16.70755 -11.24869,9.62845 -32.95886,9.01872 -43.23649,-1.21431 -4.34948,-4.33061 -8.55189,-12.0464 -8.55189,-15.7016 0,-1.39328 -0.31899,-2.53324 -0.70886,-2.53324 -0.38987,0 -4.32737,1.54817 -8.75,3.44037 -13.88013,5.93856 -31.97591,9.55963 -47.77291,9.55963 h -6.78424 l 6.18318,-7.75 c 9.36961,-11.74387 31.16544,-33.064 41.83283,-40.91981 17.58252,-12.94832 35.21186,-22.29192 51,-27.03011 12.34699,-3.70547 29.26018,-4.3365 38.67383,-1.44291 25.29142,7.77413 43.39832,38.01778 43.30665,72.33438 -0.0185,6.93996 -2.08096,24.40557 -3.74127,31.68299 l -0.76988,3.37454 z"
    />
  </g>
</svg>
